<svg preserveAspectRatio="none" width="100%" height="100%" overflow="visible" style="display: block;" viewBox="0 0 84.9083 191.19" fill="none" xmlns="http://www.w3.org/2000/svg">
<path id="Vector" d="M69.7433 49.2352C70.4938 64.8844 57.011 78.246 57.011 78.246C57.011 78.246 42.2601 66.2622 41.4837 50.613C40.7073 34.9638 54.242 21.6022 54.242 21.6022C54.242 21.6022 68.9929 33.5861 69.7433 49.2352ZM80.2243 102.448C72.5641 116.095 54.0349 120.203 54.0349 120.203C54.0349 120.203 47.9275 102.188 55.5876 88.5402C63.2478 74.8927 81.8029 70.7854 81.8029 70.7854C81.8029 70.7854 87.9103 88.8002 80.2502 102.448H80.2243ZM68.5529 151.657C55.3289 160.001 37.0843 154.802 37.0843 154.802C37.0843 154.802 40.2416 136.034 53.4397 127.689C66.6638 119.319 84.9083 124.544 84.9083 124.544C84.9083 124.544 81.7511 143.312 68.527 151.657H68.5529ZM31.4428 189.428C16.7954 194.861 0 185.997 0 185.997C0 185.997 6.96141 168.294 21.6088 162.835C36.2562 157.402 53.0515 166.266 53.0515 166.266C53.0515 166.266 46.116 183.969 31.4428 189.402V189.428ZM29.9159 11.464C40.4227 23.0579 38.4818 41.9825 38.4818 41.9825C38.4818 41.9825 19.4867 42.1125 8.97995 30.5186C-1.52685 18.9247 0.41407 6.25095e-05 0.41407 6.25095e-05C0.41407 6.25095e-05 19.4091 -0.129915 29.9159 11.464Z" fill="var(--fill-0, white)"/>
</svg>
