<svg preserveAspectRatio="none" width="100%" height="100%" overflow="visible" style="display: block;" viewBox="0 0 99.4263 50.7169" fill="none" xmlns="http://www.w3.org/2000/svg">
<path id="Vector" d="M15.1908 18.1447C14.8544 18.1447 14.6733 18.3267 14.6733 18.6647V19.9124C14.6733 20.2504 14.7768 20.5623 14.9838 20.7963C16.019 21.9921 17.5458 23.8117 19.5644 26.3333C20.289 27.2691 20.6513 28.3349 20.6513 29.5047C20.6513 30.5965 20.3407 31.5843 19.7196 32.4682C19.3056 33.0921 18.7104 33.404 17.9599 33.404H17.7529C16.9247 33.326 16.3037 32.9101 15.9413 32.1562C15.6049 31.5583 15.2426 30.9604 14.9062 30.3886C14.8803 30.3106 14.8285 30.3106 14.7509 30.3366C14.725 30.3366 14.6992 30.3626 14.6992 30.4405V47.0256C14.6992 48.0654 14.3369 48.9492 13.6123 49.6251C12.8877 50.353 12.0078 50.7169 10.9726 50.7169C9.93747 50.7169 9.10935 50.353 8.38475 49.6251C7.66014 48.9232 7.29784 48.0654 7.29784 47.0256V32.7281C7.29784 32.7281 7.27194 32.6242 7.1943 32.6242C7.16842 32.6242 7.14257 32.6242 7.14257 32.6761C6.26269 34.8598 5.3828 36.8094 4.50293 38.5251C4.11474 39.175 3.57129 39.5129 2.84668 39.5129H2.58788C1.708 39.4349 1.08691 39.019 0.724603 38.2131C0.232906 37.2513 0 36.2115 0 35.1457V34.7298C0.0776364 33.482 0.439935 32.3122 1.0869 31.2204C3.23485 27.607 4.94286 23.3958 6.2368 18.5867C6.26268 18.4827 6.23679 18.3787 6.18503 18.2747C6.10739 18.1707 6.00389 18.1187 5.8745 18.1187H3.85596C2.84668 18.1187 1.99268 17.7808 1.26808 17.0789C0.569348 16.3511 0.2329 15.4672 0.2329 14.4794C0.2329 13.4916 0.569348 12.5557 1.26808 11.8799C1.99268 11.152 2.87256 10.7881 3.85596 10.7881H6.80614C7.14256 10.7881 7.3237 10.6061 7.3237 10.2682V3.74333C7.3237 2.70351 7.686 1.81967 8.41061 1.0918C9.13522 0.36393 10.0151 0 10.9985 0C11.9819 0 12.9135 0.36393 13.6381 1.0918C14.3627 1.81967 14.725 2.70351 14.725 3.74333V10.2682C14.725 10.6061 14.9062 10.7881 15.2426 10.7881H17.1577C18.1669 10.7881 19.0209 11.152 19.6938 11.8799C20.4184 12.5817 20.7807 13.4396 20.7807 14.4794C20.7807 15.5192 20.4184 16.3511 19.6938 17.0789C18.995 17.7808 18.1411 18.1187 17.1577 18.1187H15.2426L15.1908 18.1447ZM29.7865 39.7469C29.7865 40.0848 29.9677 40.2668 30.3041 40.2668H39.7498C40.0863 40.2668 40.2674 40.0848 40.2674 39.7469V35.3017C40.2674 34.9637 40.0863 34.7818 39.7498 34.7818H30.3041C29.9677 34.7818 29.7865 34.9637 29.7865 35.3017V39.7469ZM40.2674 22.9019C40.2674 22.564 40.0863 22.382 39.7498 22.382H30.3041C29.9677 22.382 29.7865 22.564 29.7865 22.9019V27.2951C29.7865 27.633 29.9677 27.815 30.3041 27.815H39.7498C40.0863 27.815 40.2674 27.633 40.2674 27.2951V22.9019ZM40.2674 10.5801C40.2674 10.2422 40.0863 10.0602 39.7498 10.0602H30.3041C29.9677 10.0602 29.7865 10.2422 29.7865 10.5801V14.8173C29.7865 15.1553 29.9677 15.3372 30.3041 15.3372H39.7498C40.0863 15.3372 40.2674 15.1553 40.2674 14.8173V10.5801ZM22.411 7.27869C22.411 6.03092 22.851 4.96511 23.705 4.10726C24.6107 3.19742 25.6718 2.7555 26.9398 2.7555H43.554C44.7962 2.7555 45.8572 3.19742 46.7371 4.10726C47.6429 4.96511 48.0828 6.03092 48.0828 7.27869V45.9598C48.0828 47.0256 47.6946 47.9614 46.9441 48.7153C46.1937 49.4691 45.262 49.8591 44.201 49.8591H42.6482C42.0013 49.8591 41.4319 49.6251 40.992 49.1832C40.5521 48.7413 40.3192 48.1694 40.3192 47.5195C40.3192 47.3375 40.2415 47.2595 40.0604 47.2595H30.1488C29.9418 47.2595 29.8383 47.3635 29.8383 47.5715C29.8383 48.2993 29.5795 48.9232 29.0619 49.4431C28.5443 49.989 27.8974 50.275 27.1469 50.275H26.1635C25.1542 50.275 24.3002 49.9111 23.5756 49.1832C22.851 48.4553 22.4887 47.5715 22.4887 46.5836V7.27869H22.411ZM90.317 5.77096C90.7311 4.57517 91.5074 3.69134 92.5943 3.06745C93.2931 2.67752 94.0177 2.49555 94.7681 2.49555C95.1822 2.49555 95.5963 2.57353 96.0104 2.70351C97.149 3.01545 97.9772 3.71733 98.443 4.78314C98.6759 5.30305 98.8053 5.79696 98.8053 6.29087C98.8053 6.83677 98.6759 7.40867 98.3912 7.95457C97.2525 10.2162 96.1397 12.2698 95.0528 14.1155C94.5352 15.0513 93.7848 15.7012 92.7755 16.0391C92.2579 16.2471 91.7403 16.3511 91.2228 16.3511C90.7311 16.3511 90.2394 16.2731 89.7218 16.0911C88.816 15.7792 88.1949 15.1813 87.8585 14.2714C87.6774 13.8555 87.5998 13.4396 87.5998 13.0237C87.5998 12.5817 87.7033 12.1138 87.9103 11.6199C88.816 9.69626 89.6183 7.74661 90.2911 5.77096H90.317ZM68.7082 10.2162C68.9152 10.7361 69.0188 11.256 69.0188 11.7759C69.0188 12.2958 68.9152 12.8157 68.7082 13.3356C68.2683 14.3754 67.4919 15.1293 66.4309 15.5712C65.9909 15.7792 65.5251 15.8831 65.0334 15.8831C64.5159 15.8831 63.9983 15.7532 63.4807 15.5192C62.4973 15.0773 61.8244 14.3234 61.4104 13.2836C60.6858 11.5419 59.8059 9.77424 58.8225 7.95457C58.5378 7.43466 58.4085 6.88876 58.4085 6.34286C58.4085 6.00492 58.4602 5.64098 58.5637 5.25105C58.8743 4.34121 59.4695 3.69134 60.3752 3.3274C60.9705 3.11944 61.5657 3.01546 62.135 3.01546C62.575 3.01546 63.0408 3.09344 63.5325 3.22342C64.6194 3.56136 65.4475 4.21124 66.0168 5.14708C67.0261 6.81078 67.9319 8.50048 68.7082 10.2162ZM82.5793 4.31523V17.8328C82.5793 18.1707 82.7604 18.3527 83.0968 18.3527H94.8976C96.1397 18.3527 97.2008 18.7946 98.0807 19.7045C98.9864 20.5623 99.4263 21.6281 99.4263 22.8759V46.5317C99.4263 47.6755 99.0123 48.6633 98.1842 49.4431C97.3819 50.275 96.4244 50.6909 95.2858 50.6909H93.0084C92.4908 50.6909 92.0509 50.5089 91.6627 50.119C91.3263 49.7811 91.1451 49.3392 91.1451 48.8193C91.1451 48.6893 91.0675 48.6113 90.9381 48.6113H60.9963C59.9094 48.6113 59.0037 48.2214 58.2532 47.4675C57.5027 46.7396 57.1145 45.8298 57.1145 44.764C57.1145 43.6982 57.5027 42.7883 58.2532 42.0605C59.0037 41.3066 59.9353 40.9167 60.9963 40.9167H90.6017C90.9381 40.9167 91.1193 40.7347 91.1193 40.3968V37.4853C91.1193 37.1473 90.9381 36.9654 90.6017 36.9654H63.9983C62.9631 36.9654 62.0833 36.6014 61.3586 35.8736C60.634 35.1457 60.2717 34.2619 60.2717 33.274C60.2717 32.2862 60.634 31.3504 61.3586 30.6225C62.0833 29.8946 62.9631 29.5307 63.9983 29.5307H90.6017C90.9381 29.5307 91.1193 29.3487 91.1193 29.0108V26.7232C91.1193 26.3853 90.9381 26.2033 90.6017 26.2033H62.2903C61.2034 26.2033 60.2976 25.8134 59.5471 25.0595C58.7967 24.3056 58.4085 23.3958 58.4085 22.356C58.4085 21.3162 58.7967 20.3543 59.5471 19.6005C60.2976 18.8466 61.2293 18.4567 62.2903 18.4567H73.5217C73.8581 18.4567 74.0392 18.2747 74.0392 17.9368V4.4192C74.0392 3.22341 74.4533 2.23559 75.2814 1.40374C76.1095 0.545895 77.1188 0.103974 78.2834 0.103974C79.4479 0.103974 80.509 0.545895 81.3371 1.40374C82.1652 2.23559 82.5793 3.24941 82.5793 4.4192V4.31523Z" fill="var(--fill-0, white)"/>
</svg>
