<svg preserveAspectRatio="none" width="100%" height="100%" overflow="visible" style="display: block;" viewBox="0 0 104.576 17.1309" fill="none" xmlns="http://www.w3.org/2000/svg">
<path id="Vector" d="M7.45311 2.39157C7.71189 2.65152 7.86718 2.98947 7.86718 3.3534C7.86718 3.71734 7.73777 4.02929 7.45311 4.31524C7.19432 4.57519 6.85787 4.70515 6.49556 4.70515C6.13326 4.70515 5.82273 4.57519 5.53806 4.31524C5.25339 4.05528 5.12399 3.71734 5.12399 3.3534C5.12399 2.98947 5.25339 2.65152 5.53806 2.39157C5.79685 2.13161 6.13326 1.97565 6.49556 1.97565C6.85787 1.97565 7.16844 2.10562 7.45311 2.39157ZM0.802236 2.2616L6.3662 7.8506C6.3662 7.8506 6.52145 7.92859 6.62497 7.8506L12.1889 2.2616C12.1889 2.2616 12.3442 2.15762 12.4477 2.15762C12.5512 2.15762 12.6289 2.18362 12.7065 2.2616C12.7841 2.33959 12.81 2.41757 12.81 2.52155C12.81 2.62553 12.7841 2.70351 12.7065 2.7815L7.14253 8.3705C7.14253 8.3705 7.0649 8.52647 7.14253 8.63045L12.7065 14.2195C12.7065 14.2195 12.81 14.3754 12.81 14.4794C12.81 14.5834 12.7841 14.6614 12.7065 14.7394C12.6289 14.8173 12.5512 14.8433 12.4477 14.8433C12.3442 14.8433 12.2666 14.8173 12.1889 14.7394L6.62497 9.15037C6.62497 9.15037 6.46972 9.07239 6.3662 9.15037L0.776372 14.7654C0.776372 14.7654 0.621083 14.8693 0.517568 14.8693C0.414053 14.8693 0.33644 14.8433 0.258804 14.7654C0.181167 14.6874 0.155266 14.6094 0.155266 14.5054C0.155266 14.4014 0.181167 14.3234 0.258804 14.2455L5.84859 8.63045C5.84859 8.63045 5.92623 8.47448 5.84859 8.3705L0.284668 2.7815C0.284668 2.7815 0.181171 2.62553 0.181171 2.52155C0.181171 2.41757 0.207032 2.33959 0.284668 2.2616C0.362305 2.18362 0.439957 2.15762 0.543472 2.15762C0.646987 2.15762 0.7246 2.18362 0.802236 2.2616ZM0.41407 7.53865C0.672858 7.2787 1.00927 7.14872 1.37157 7.14872C1.73388 7.14872 2.07029 7.27871 2.32908 7.56465C2.58786 7.82461 2.74315 8.13654 2.74315 8.52647C2.74315 8.9164 2.61374 9.20236 2.32908 9.4883C2.07029 9.74826 1.75976 9.90422 1.37157 9.90422C0.983391 9.90422 0.698737 9.77425 0.41407 9.4883C0.155282 9.22835 0 8.8904 0 8.52647C0 8.16253 0.129403 7.82461 0.41407 7.56465V7.53865ZM12.5771 9.4623C12.3183 9.72226 11.9819 9.87824 11.6196 9.87824C11.2573 9.87824 10.9467 9.74825 10.6621 9.4623C10.4033 9.20235 10.2739 8.86442 10.2739 8.50049C10.2739 8.13655 10.4033 7.79861 10.6621 7.53865C10.9208 7.2787 11.2573 7.12272 11.6196 7.12272C11.9819 7.12272 12.3183 7.2527 12.5771 7.53865C12.8359 7.79861 12.9912 8.11056 12.9912 8.50049C12.9912 8.89042 12.8618 9.17635 12.5771 9.4623ZM5.53806 14.6094C5.25339 14.3494 5.12399 14.0115 5.12399 13.6476C5.12399 13.2836 5.25339 12.9457 5.53806 12.6857C5.79685 12.4258 6.13326 12.2698 6.49556 12.2698C6.85787 12.2698 7.16844 12.3998 7.45311 12.6857C7.71189 12.9457 7.86718 13.2576 7.86718 13.6476C7.86718 14.0375 7.73777 14.3234 7.45311 14.6094C7.19432 14.8693 6.85787 15.0253 6.49556 15.0253C6.13326 15.0253 5.82273 14.8953 5.53806 14.6094ZM28.2338 7.04474C27.9232 8.13654 27.3021 9.33234 26.3964 10.6321C25.4906 11.9059 24.4813 12.9717 23.3686 13.7775C22.2558 14.5834 20.6772 15.2073 18.6069 15.6752C17.8046 15.8312 17.287 15.4412 17.0541 14.5314C16.9247 13.5956 17.3129 13.0497 18.1669 12.8937C19.6938 12.6337 20.9101 12.1658 21.8158 11.464C22.7475 10.7621 23.5497 9.95622 24.2226 9.04639C24.9213 8.11056 25.413 7.14872 25.7494 6.1089C26.0341 5.38103 26.6034 5.12109 27.4315 5.32905C28.2079 5.69299 28.4667 6.26489 28.2079 7.01875L28.2338 7.04474ZM17.0283 3.45739C17.0283 2.54755 17.4941 2.07964 18.3998 2.07964H21.0912C21.997 2.07964 22.4628 2.54755 22.4628 3.45739C22.4628 4.36722 21.997 4.86114 21.0912 4.86114H18.3998C17.4941 4.86114 17.0283 4.39322 17.0283 3.48339V3.45739ZM17.0283 7.74662C17.0283 6.83678 17.4941 6.36887 18.3998 6.36887H21.0912C21.997 6.36887 22.4628 6.83678 22.4628 7.74662C22.4628 8.65646 21.997 9.15037 21.0912 9.15037H18.3998C17.4941 9.15037 17.0283 8.68244 17.0283 7.7726V7.74662ZM31.7015 2.98947C31.7015 2.07963 32.1415 1.6377 33.0472 1.6377C33.953 1.6377 34.4188 2.07963 34.4188 2.98947V8.55247C34.4188 9.46231 33.9789 9.90422 33.0731 9.90422C32.1673 9.90422 31.7015 9.46231 31.7015 8.55247V2.98947ZM35.014 13.3876C35.9456 13.0237 36.6185 12.6077 37.0326 12.1658C37.4466 11.7239 37.8089 11.178 38.0936 10.5281C38.4041 9.87824 38.5594 9.04638 38.5594 8.08455V2.96347C38.5594 2.05363 38.9993 1.61172 39.9051 1.61172C40.8109 1.61172 41.2767 2.05363 41.2767 2.96347V8.08455C41.2767 9.56629 41.0179 10.8141 40.578 11.8539C40.1122 12.8677 39.5169 13.6996 38.7664 14.3494C38.0159 14.9733 37.0585 15.5452 35.9198 16.0131C34.9881 16.2991 34.3929 16.0131 34.0824 15.1553C33.9012 14.2195 34.2118 13.6216 34.9881 13.3876H35.014ZM44.4857 8.70844C44.4857 7.7986 44.9515 7.33069 45.8572 7.33069H51.24C52.1458 7.33069 52.6116 7.7986 52.6116 8.70844C52.6116 9.61827 52.1458 10.1122 51.24 10.1122H45.8572C44.9515 10.1122 44.4857 9.64427 44.4857 8.73444V8.70844ZM55.4583 3.56137C55.4583 2.62554 55.9241 2.15762 56.8557 2.15762H62.6785C63.5842 2.13162 64.2312 2.46957 64.5935 3.19744C64.9817 3.92531 64.9299 4.75715 64.4641 5.69299C63.9206 7.04474 63.3513 8.18854 62.7302 9.12437C63.2478 9.82625 63.8171 10.5281 64.3865 11.256C64.9558 11.9579 65.5251 12.6077 66.0686 13.2056C66.612 13.9595 66.5861 14.6354 66.0168 15.2593C65.344 15.6492 64.7488 15.5712 64.2571 14.9993C63.8689 14.6614 63.4031 14.1415 62.8337 13.4396C62.2644 12.7377 61.7209 12.0099 61.1516 11.256C60.427 12.1398 59.7024 12.9197 58.9519 13.5696C58.2014 14.2195 57.4509 14.7654 56.7005 15.2333C55.9241 15.7012 55.303 15.5712 54.8113 14.8693C54.449 13.9335 54.6301 13.2576 55.303 12.8157C55.9758 12.5038 56.7004 11.9579 57.5286 11.204C58.3567 10.4501 59.1072 9.59228 59.8318 8.63045C60.5564 7.66863 61.1257 6.68081 61.5657 5.615C61.6951 5.19908 61.5657 4.9911 61.1516 4.9911H56.8299C55.8982 4.9911 55.4324 4.52318 55.4324 3.58735L55.4583 3.56137ZM64.8264 1.48173C64.8264 1.0918 65.0334 0.883852 65.4216 0.883852C65.8098 0.883852 66.0427 1.0918 66.0427 1.48173V2.8335C66.0427 3.22343 65.8357 3.43138 65.4475 3.43138C65.0593 3.43138 64.8264 3.22343 64.8264 2.8335V1.48173ZM66.7414 1.48173C66.7414 1.0918 66.9485 0.883852 67.3366 0.883852C67.7248 0.883852 67.9577 1.0918 67.9577 1.48173V2.8335C67.9577 3.22343 67.7507 3.43138 67.3625 3.43138C66.9743 3.43138 66.7414 3.22343 66.7414 2.8335V1.48173ZM73.1594 4.78315C73.1594 4.78315 72.9782 4.83514 72.9782 4.96512V5.22507C72.9782 5.22507 73.03 5.40704 73.1594 5.40704H75.7731C75.7731 5.40704 75.9543 5.35505 75.9543 5.22507V4.96512C75.9543 4.96512 75.9025 4.78315 75.7731 4.78315H73.1594ZM73.1594 2.36559C73.1594 2.36559 72.9782 2.41758 72.9782 2.54755V2.7815C72.9782 2.7815 73.03 2.96347 73.1594 2.96347H75.7731C75.7731 2.96347 75.9543 2.91148 75.9543 2.7815V2.54755C75.9543 2.54755 75.9025 2.36559 75.7731 2.36559H73.1594ZM81.4406 2.96347C81.4406 2.96347 81.6218 2.91148 81.6218 2.7815V2.54755C81.6218 2.54755 81.57 2.36559 81.4406 2.36559H78.6715C78.6715 2.36559 78.4904 2.41758 78.4904 2.54755V2.7815C78.4904 2.7815 78.5421 2.96347 78.6715 2.96347H81.4406ZM81.4406 5.38104C81.4406 5.38104 81.6218 5.32905 81.6218 5.19907V4.93912C81.6218 4.93912 81.57 4.75715 81.4406 4.75715H78.6715C78.6715 4.75715 78.4904 4.80914 78.4904 4.93912V5.19907C78.4904 5.19907 78.5421 5.38104 78.6715 5.38104H81.4406ZM82.9674 13.2316C82.9674 13.2316 82.8639 13.1536 82.7863 13.1536H81.4406C81.4406 13.1536 81.4147 13.2056 81.3888 13.2316C81.3888 13.2316 81.3888 13.2836 81.4147 13.2836C82.4757 13.8295 83.4332 14.3494 84.2614 14.8693C84.5202 15.0253 84.6496 15.2853 84.6496 15.5972C84.6496 15.8832 84.5202 16.1171 84.2873 16.2991C84.0026 16.5071 83.6662 16.611 83.3039 16.611H83.278C82.9157 16.611 82.5792 16.5071 82.2428 16.2991C81.7511 15.9612 81.2077 15.6232 80.5866 15.2593C80.276 15.0773 80.1208 14.7914 80.1208 14.4014C80.1208 14.0895 80.2501 13.8295 80.5348 13.6476L80.9748 13.3356C80.9748 13.3356 81.0007 13.3096 80.9748 13.2836C80.9748 13.2576 80.9489 13.2316 80.923 13.2316L78.6974 13.3096C78.6974 13.3096 78.5163 13.3616 78.5163 13.4916V15.8312C78.5163 16.1951 78.3869 16.4811 78.1281 16.741C77.8693 17.001 77.5588 17.1309 77.1965 17.1309C76.8342 17.1309 76.5495 17.001 76.2907 16.741C76.0319 16.4811 75.9284 16.1951 75.9284 15.8312V13.5436C75.9284 13.5436 75.9284 13.4656 75.8767 13.4136C75.8508 13.3876 75.799 13.3616 75.7473 13.3616L73.1852 13.4136C73.1852 13.4136 73.1853 13.4136 73.1594 13.4396C73.1594 13.4396 73.1594 13.4396 73.1852 13.4656L73.8063 13.7255C74.1428 13.8555 74.3239 14.0895 74.3757 14.4274C74.3757 14.4794 74.3757 14.5574 74.3757 14.6094C74.3757 14.8693 74.2722 15.1033 74.0392 15.2593C73.4182 15.7012 72.7194 16.1431 71.9689 16.533C71.7101 16.663 71.4513 16.715 71.1926 16.715C71.089 16.715 70.9855 16.715 70.882 16.715C70.4938 16.637 70.1833 16.4811 69.8728 16.1951C69.7175 16.0391 69.614 15.8572 69.614 15.6752C69.614 15.6232 69.614 15.5712 69.614 15.5192C69.6657 15.2593 69.821 15.0513 70.0798 14.9473C71.1408 14.5314 71.9689 14.0635 72.6159 13.5696C72.6159 13.5696 72.6418 13.5176 72.6159 13.4916C72.6159 13.4656 72.6159 13.4396 72.5642 13.4656C71.7619 13.4656 71.0114 13.4656 70.3386 13.4656C70.0798 13.4656 69.821 13.3616 69.6399 13.1796C69.4069 12.9717 69.3034 12.7377 69.3034 12.4258C69.3034 12.1658 69.4069 11.9319 69.5881 11.7499C69.7951 11.5419 70.028 11.438 70.2868 11.438C71.1149 11.438 71.8395 11.438 72.4865 11.438C72.6159 11.438 72.7194 11.438 72.8229 11.36C72.9782 11.282 73.1076 11.204 73.237 11.178C73.2629 11.178 73.2888 11.126 73.2888 11.1C73.2888 11.048 73.2888 11.022 73.2629 10.996C72.7194 10.6061 72.0983 10.1642 71.3737 9.74825C71.1149 9.59228 71.0114 9.35832 71.0114 9.07237C71.0114 8.81242 71.1149 8.63046 71.2961 8.47449L71.4514 8.3705C71.7102 8.18854 71.9689 8.08455 72.2536 8.05855H72.383C72.6418 8.05855 72.8747 8.11054 73.0817 8.24052C73.1594 8.29251 73.2111 8.29251 73.2629 8.24052C73.4958 8.05855 73.7805 7.82459 74.1686 7.48665C74.1686 7.48665 74.1686 7.43466 74.1686 7.40867C74.1686 7.38267 74.1686 7.35669 74.1169 7.35669H71.9431C71.529 7.35669 71.1667 7.20072 70.8562 6.91477C70.5715 6.60283 70.4162 6.23888 70.4162 5.82295V1.97565C70.4162 1.55973 70.5715 1.19578 70.8562 0.909833C71.1667 0.597889 71.529 0.441916 71.9431 0.441916H82.5275C82.9415 0.441916 83.3039 0.597889 83.5885 0.909833C83.8991 1.19578 84.0543 1.55973 84.0543 1.97565V5.82295C84.0543 6.23888 83.8991 6.60283 83.5885 6.91477C83.3039 7.20072 82.9415 7.35669 82.5275 7.35669H77.4811C77.4811 7.35669 77.5588 7.43466 77.5588 7.48665C77.5588 7.53864 77.5588 7.56464 77.507 7.59064C76.7048 8.18853 75.9025 8.73444 75.0744 9.22835C75.0485 9.22835 75.0227 9.28035 75.0227 9.33234C75.0227 9.35833 75.0226 9.38433 75.0744 9.41032C75.2555 9.5403 75.4108 9.64427 75.5402 9.72225C75.6437 9.80024 75.7214 9.80024 75.8508 9.72225C76.7824 9.17635 77.6105 8.63046 78.3869 8.08455C78.6974 7.8506 79.0597 7.72061 79.4479 7.69462H79.6032C79.9396 7.69462 80.2501 7.7726 80.5348 7.95457C80.7936 8.08455 80.9489 8.31851 80.9489 8.63045C80.9489 8.89041 80.8195 9.12436 80.5866 9.25434C79.3962 9.98221 78.2057 10.6581 76.9894 11.282C76.9894 11.282 76.9894 11.308 76.9894 11.334L77.0153 11.36L80.5089 11.308C80.5089 11.308 80.5089 11.308 80.5089 11.282V11.23C80.3019 11.1 80.1984 10.892 80.1984 10.6581C80.1984 10.3981 80.3019 10.1902 80.5348 10.0602H80.5607C80.8454 9.87824 81.1559 9.77425 81.4664 9.77425H81.4924C81.8288 9.77425 82.1393 9.87822 82.3981 10.0862C83.2521 10.6581 84.0026 11.23 84.6237 11.7759C84.8307 11.9579 84.9342 12.1658 84.9342 12.4258V12.5298C84.9084 12.8417 84.7531 13.1016 84.4684 13.2576L84.2096 13.4136C84.0285 13.5176 83.8473 13.5696 83.6662 13.5696C83.6144 13.5696 83.5627 13.5696 83.5109 13.5696C83.2521 13.5436 83.0451 13.4396 82.8639 13.2576L82.9674 13.2316ZM93.1895 0.415935C93.4483 0.415935 93.6813 0.519904 93.8624 0.727866C94.0694 0.909834 94.1729 1.1438 94.1729 1.42975C94.1729 1.7157 94.0694 1.92365 93.8624 2.13162C93.6813 2.31358 93.4483 2.41757 93.1895 2.41757H89.2819C89.0231 2.41757 88.7902 2.31358 88.609 2.13162C88.4279 1.92365 88.3244 1.68971 88.3244 1.42975C88.3244 1.1698 88.4279 0.935829 88.609 0.727866C88.7902 0.519904 89.0231 0.415935 89.2819 0.415935H93.1895ZM93.8365 2.88548C94.1212 2.88548 94.3541 2.98947 94.5612 3.19744C94.7682 3.4054 94.8717 3.63935 94.8717 3.9253C94.8717 4.21125 94.7682 4.44521 94.5612 4.65317C94.3541 4.86113 94.1212 4.96512 93.8365 4.96512H88.2984C88.0138 4.96512 87.7809 4.86113 87.5738 4.65317C87.3927 4.44521 87.2892 4.21125 87.2892 3.9253C87.2892 3.63935 87.3927 3.4054 87.5738 3.19744C87.7809 2.98947 88.0138 2.88548 88.2984 2.88548H93.8365ZM91.818 12.7637C91.818 12.7637 91.7662 12.5818 91.6368 12.5818H90.5758C90.5758 12.5818 90.3947 12.6337 90.3947 12.7637V13.9595C90.3947 13.9595 90.4464 14.1415 90.5758 14.1415H91.6368C91.6368 14.1415 91.818 14.0895 91.818 13.9595V12.7637ZM92.5685 10.5541C92.9825 10.5541 93.3448 10.7101 93.6295 11.022C93.9401 11.308 94.0953 11.6719 94.0953 12.0878V14.6354C94.0953 15.0513 93.9401 15.4152 93.6295 15.7012C93.3448 16.0131 92.9825 16.1691 92.5685 16.1691H90.4723C90.4723 16.1691 90.3947 16.1691 90.3947 16.2471C90.3947 16.4031 90.3429 16.559 90.2135 16.663C90.11 16.793 89.9547 16.845 89.7994 16.845H89.256C88.9454 16.845 88.6608 16.741 88.4538 16.507C88.2467 16.2731 88.1432 16.0131 88.1432 15.7012V12.0878C88.1432 11.6719 88.2985 11.308 88.5831 11.022C88.8937 10.7101 89.256 10.5541 89.67 10.5541H92.5685ZM89.1784 9.95622C88.9196 9.95622 88.6866 9.85224 88.5055 9.67027C88.3243 9.46231 88.2208 9.22836 88.2208 8.96841C88.2208 8.70845 88.3243 8.47448 88.5055 8.26652C88.6866 8.05856 88.9196 7.95457 89.1784 7.95457H93.1637C93.4225 7.95457 93.6554 8.05856 93.8365 8.26652C94.0435 8.44849 94.1471 8.68246 94.1471 8.96841C94.1471 9.25435 94.0435 9.46231 93.8365 9.67027C93.6554 9.85224 93.4225 9.95622 93.1637 9.95622H89.1784ZM89.1784 7.43467C88.9196 7.43467 88.6866 7.33069 88.5055 7.14872C88.3243 6.96675 88.2208 6.7328 88.2208 6.44685C88.2208 6.1609 88.3243 5.95293 88.5055 5.74497C88.6866 5.563 88.9196 5.45902 89.1784 5.45902H93.1637C93.4225 5.45902 93.6554 5.563 93.8365 5.74497C94.0435 5.92694 94.1471 6.1609 94.1471 6.44685C94.1471 6.7328 94.0435 6.94076 93.8365 7.14872C93.6554 7.33069 93.4225 7.43467 93.1637 7.43467H89.1784ZM103.282 5.92693C103.645 5.92693 103.929 6.05692 104.188 6.31687C104.447 6.57682 104.576 6.88877 104.576 7.2527C104.576 7.61664 104.447 7.90258 104.188 8.16254C103.929 8.42249 103.619 8.52647 103.282 8.52647H101.16C101.16 8.52647 100.979 8.57846 100.979 8.70844V15.7532C100.979 16.1171 100.85 16.4291 100.565 16.689C100.306 16.949 99.9957 17.0789 99.6334 17.0789C99.2711 17.0789 98.9605 16.949 98.6759 16.689C98.4171 16.4291 98.2877 16.1171 98.2877 15.7532V8.70844C98.2877 8.70844 98.2359 8.52647 98.1065 8.52647H96.0362C95.6739 8.52647 95.3892 8.39649 95.1305 8.16254C94.8717 7.90258 94.7681 7.59064 94.7681 7.2527C94.7681 6.91476 94.8975 6.57682 95.1305 6.31687C95.3892 6.05692 95.6998 5.92693 96.0362 5.92693H98.1065C98.1065 5.92693 98.2877 5.87495 98.2877 5.74497V1.32577C98.2877 0.961833 98.4171 0.649888 98.6759 0.389934C98.9347 0.129981 99.2711 0 99.6334 0C99.9957 0 100.306 0.129981 100.565 0.389934C100.824 0.649888 100.979 0.961833 100.979 1.32577V5.74497C100.979 5.74497 101.031 5.92693 101.16 5.92693H103.282Z" fill="var(--fill-0, white)"/>
</svg>
