<svg preserveAspectRatio="none" width="100%" height="100%" overflow="visible" style="display: block;" viewBox="0 0 212.672 104.865" fill="none" xmlns="http://www.w3.org/2000/svg">
<path id="Vector" d="M60.5305 23.8377C60.7375 24.4876 61.2034 24.8256 61.928 24.8256H73.8322C74.5568 24.8256 75.0226 24.4876 75.2297 23.8377C75.7214 22.382 76.1613 21.0822 76.5236 19.9124C76.6012 19.7045 76.5236 19.4705 76.3166 19.2626C76.1613 19.0546 75.9543 18.9246 75.6696 18.9246H59.3142C59.1072 18.9246 58.926 19.0286 58.7707 19.2626C58.6931 19.4705 58.6931 19.7045 58.7707 19.9124C59.3401 21.1342 59.9353 22.46 60.5046 23.8377H60.5305ZM54.9148 61.1411C54.1902 61.1411 53.8279 61.505 53.8279 62.2329V63.3247C53.8279 64.0525 54.1902 64.4165 54.9148 64.4165H80.4572C81.1818 64.4165 81.5441 64.0525 81.5441 63.3247V62.2329C81.5441 61.505 81.1818 61.1411 80.4572 61.1411H54.9148ZM54.9148 49.8071C54.1902 49.8071 53.8279 50.171 53.8279 50.8989V51.8867C53.8279 52.6146 54.1902 52.9785 54.9148 52.9785H80.4572C81.1818 52.9785 81.5441 52.6146 81.5441 51.8867V50.8989C81.5441 50.171 81.1818 49.8071 80.4572 49.8071H54.9148ZM102.532 88.5401C103.179 89.7099 103.515 90.9057 103.515 92.1275C103.515 92.7774 103.412 93.4793 103.205 94.1811C102.635 96.1308 101.393 97.6125 99.5298 98.6263C98.5206 99.1982 97.4854 99.4842 96.3985 99.4842C95.6739 99.4842 94.9493 99.3282 94.2247 99.0423C92.3614 98.4704 90.9381 97.3006 90.0065 95.5589C89.7218 95.117 89.463 94.701 89.256 94.2591C89.1783 94.1031 89.0489 94.0512 88.816 94.0512C88.6608 94.0512 88.5572 94.1551 88.4796 94.3891C87.548 98.3144 86.0211 100.992 83.9249 102.448C81.9064 103.981 78.8786 104.735 74.8415 104.735H63.2478C56.9075 104.735 52.6892 103.643 50.593 101.486C48.4969 99.3282 47.4617 95.2989 47.4617 89.424V84.1989C47.4617 84.043 47.3841 83.991 47.2547 83.991C47.177 83.991 47.1512 84.017 47.1512 84.0949C45.6502 88.3062 44.0457 91.8935 42.3895 94.857C41.1732 97.1706 39.2064 98.5483 36.5408 98.9903C35.9715 99.0683 35.4281 99.0943 34.9105 99.0943C32.8919 99.0943 31.0546 98.4704 29.3983 97.2486L26.914 95.6109C26.7587 95.4549 26.6034 95.4289 26.3705 95.5069C26.2152 95.6629 26.1635 95.8448 26.1635 96.0528V97.2486C26.1635 99.3542 25.413 101.122 23.8861 102.578C22.3593 104.111 20.5736 104.865 18.4775 104.865C16.3813 104.865 14.5698 104.111 13.0688 102.578C11.5678 101.122 10.7915 99.3542 10.7915 97.2486V49.6251C10.7915 49.4691 10.7138 49.4172 10.5844 49.4172C10.4291 49.3392 10.3256 49.3392 10.2739 49.4172C9.34225 50.5869 8.22945 51.1588 6.90963 51.1588C6.54733 51.1588 6.23679 51.1329 5.92625 51.0549C4.11473 50.6909 2.82079 49.6771 2.04443 48.0134C1.8374 47.4935 1.60449 46.9996 1.39746 46.4797C0.465821 44.582 0 42.6324 0 40.6047C0 40.0328 0.0258812 39.4089 0.103518 38.7591C0.465821 36.0036 1.55272 33.612 3.36423 31.5843C9.57514 24.2017 14.8285 15.8572 19.1762 6.57683C20.1078 4.54919 21.5829 3.06745 23.6273 2.10563C24.7919 1.58572 25.9306 1.35176 27.0951 1.35176C27.9491 1.35176 28.829 1.50774 29.683 1.79369L34.1083 3.32741C34.9623 3.53537 35.5575 4.05528 35.8421 4.86114C36.2044 5.58901 36.2303 6.34286 35.9456 7.14872C35.868 7.35668 35.9457 7.48666 36.1527 7.48666H58.6672C59.1589 7.48666 59.4177 7.22671 59.4177 6.73279C59.4177 4.83513 60.0647 3.24942 61.3586 1.94965C62.6526 0.649884 64.257 0 66.1203 0H68.8376C70.7267 0 72.3053 0.649884 73.5993 1.94965C74.8932 3.24942 75.5402 4.86113 75.5402 6.73279C75.5402 7.2527 75.799 7.48666 76.2907 7.48666H95.6739C97.2525 7.48666 98.5982 8.05856 99.6851 9.22836C100.85 10.3202 101.419 11.6459 101.419 13.2576C101.419 14.8693 100.85 16.2211 99.6851 17.3909C98.5982 18.4827 97.2784 19.0286 95.6739 19.0286H94.38C93.8106 19.0286 93.3707 19.2366 93.086 19.6785L90.4982 23.9157C90.4205 24.1237 90.4205 24.3576 90.4982 24.5656C90.6534 24.7736 90.8087 24.9035 91.0416 24.9035H98.2877C99.9439 24.9035 101.341 25.5274 102.506 26.7492C103.722 27.919 104.343 29.3488 104.343 31.0904C104.343 32.8321 103.722 34.2099 102.506 35.4317C101.341 36.6534 99.9439 37.2773 98.2877 37.2773H37.1361C35.4798 37.2773 34.0306 36.6534 32.8143 35.4317C31.6498 34.2099 31.0804 32.7541 31.0804 31.0904C31.0804 29.4267 31.6498 27.893 32.8143 26.7492C34.0306 25.5274 35.4798 24.9035 37.1361 24.9035H45.3655C45.8055 24.9035 45.9349 24.6956 45.8055 24.2537C45.2879 22.9539 44.7703 21.6021 44.1751 20.2244C44.0198 20.0164 44.0198 19.7825 44.1751 19.5745C44.3304 19.2886 44.5115 19.1066 44.7186 19.0286H43.6317C41.2508 19.0286 39.2064 18.1967 37.4725 16.533C35.8162 14.7914 34.9881 12.7377 34.9881 10.3461C34.9881 10.2682 34.9105 10.2422 34.7811 10.2422C34.7035 10.1642 34.6776 10.1642 34.6776 10.2422C32.2967 15.4672 29.6571 20.6923 26.7846 25.8914C26.4222 26.4633 26.2411 27.1132 26.2411 27.841V92.6474C26.2411 92.8554 26.3187 93.0113 26.4481 93.0893C26.5775 93.1673 26.7328 93.1153 26.8881 92.9854C28.7772 90.8797 30.4593 88.3842 31.9862 85.4727C33.2025 83.1591 35.014 81.4954 37.3949 80.4816C38.6112 79.9097 39.8533 79.6237 41.0696 79.6237C42.1565 79.6237 43.2435 79.8317 44.3045 80.2736L47.2288 81.4694C47.4358 81.5474 47.5652 81.4694 47.5652 81.2614C47.5652 80.3256 47.8758 79.5198 48.5486 78.8699C49.1956 78.22 49.9461 77.8821 50.826 77.8821H60.3494C60.3494 77.8821 60.4529 77.8561 60.4529 77.7781C60.5305 77.7001 60.5305 77.6741 60.4529 77.6741C60.0906 77.3102 59.7024 76.9462 59.2624 76.5823C58.8225 76.2184 58.6155 75.7764 58.6155 75.2825C58.6155 74.7106 58.8225 74.2687 59.2624 73.9828C59.2624 73.9048 59.2366 73.8788 59.1589 73.8788H48.1087C45.5208 73.8788 43.2693 72.9689 41.4061 71.1493C39.5946 69.2516 38.6888 67.016 38.6888 64.4165V50.067C38.6888 47.4675 39.5946 45.2579 41.4061 43.4382C43.2693 41.5406 45.5208 40.6047 48.1087 40.6047H88.1691C90.7569 40.6047 92.9566 41.5406 94.7681 43.4382C96.6314 45.2579 97.5889 47.4675 97.5889 50.067V64.4165C97.5889 67.016 96.6573 69.2776 94.7681 71.1493C92.9566 72.9689 90.7569 73.8788 88.1691 73.8788H75.5143C75.3591 73.8788 75.2555 73.9568 75.1779 74.0867C75.1779 74.1647 75.2038 74.2687 75.2814 74.4247C75.4367 74.5027 75.5402 74.5807 75.6178 74.6326C76.7824 75.7244 77.3517 76.9982 77.3517 78.428C77.3517 78.7139 77.3258 78.9739 77.2482 79.1818C77.0929 80.9235 76.3166 82.3793 74.8674 83.523C73.6511 84.3809 72.3312 84.8228 70.9597 84.8228C70.675 84.8228 70.3903 84.7968 70.1057 84.7188C68.3718 84.5109 66.8449 83.731 65.551 82.4312C64.7487 81.5734 63.8947 80.6896 62.9631 79.8317C62.8078 79.6757 62.6267 79.6497 62.4196 79.7277C62.2126 79.8057 62.1091 79.9357 62.1091 80.1696V89.424C62.1091 90.8797 62.2903 91.7896 62.6526 92.1535C63.0925 92.4394 64.1018 92.5954 65.6804 92.5954H73.3664C74.4533 92.5954 75.2038 92.2575 75.6437 91.6076C77.2223 89.372 78.8786 88.2282 80.6125 88.2282C81.13 88.2282 81.6217 88.3062 82.1393 88.4362C83.2262 88.8781 84.339 89.268 85.5035 89.6319C85.7106 89.7099 85.8658 89.6579 85.9435 89.528C86.0988 89.372 86.0988 89.242 85.9435 89.086C85.5812 88.5661 85.2189 88.0462 84.8566 87.4483C84.0543 86.3565 83.6661 85.2127 83.6661 83.965C83.6661 83.523 83.692 83.1071 83.7697 82.6652C84.132 80.9235 85.1154 79.6497 86.694 78.8699C87.9103 78.142 89.256 77.7781 90.7052 77.7781C91.2227 77.7781 91.7145 77.8041 92.232 77.8821C94.2506 78.246 95.8809 79.2338 97.0972 80.8195C99.2711 83.497 101.134 86.1226 102.739 88.6441L102.532 88.5401ZM172.198 46.3497C172.198 47.0776 172.56 47.4415 173.284 47.4415H195.359C196.084 47.4415 196.446 47.0776 196.446 46.3497V22.9799C196.446 22.252 196.084 21.8881 195.359 21.8881H173.284C172.56 21.8881 172.198 22.252 172.198 22.9799V46.3497ZM134.518 21.8621C133.793 21.8621 133.431 22.226 133.431 22.9539V46.3237C133.431 47.0516 133.793 47.4155 134.518 47.4155H154.988C155.713 47.4155 156.075 47.0516 156.075 46.3237V22.9539C156.075 22.226 155.713 21.8621 154.988 21.8621H134.518ZM203.252 5.90094C205.84 5.90094 208.04 6.83678 209.851 8.73444C211.714 10.5541 212.672 12.7637 212.672 15.3632V86.5905C212.672 90.8017 212.154 94.0512 211.145 96.3648C210.213 98.7563 208.48 100.602 205.943 101.902C202.916 103.487 198.464 104.449 192.616 104.735H192.176C189.95 104.735 187.932 104.007 186.12 102.552C184.179 101.018 182.73 99.0423 181.799 96.5727C181.591 95.8448 181.462 95.169 181.462 94.5191C181.462 93.4273 181.799 92.4134 182.445 91.4776C183.455 89.8919 184.904 89.086 186.767 89.086H193.47C194.557 89.086 195.307 88.9041 195.747 88.5401C196.187 88.0982 196.394 87.3704 196.394 86.3565V64.4945C196.394 63.7666 196.032 63.4027 195.307 63.4027H134.466C133.742 63.4027 133.379 63.7666 133.379 64.4945V96.6767C133.379 98.8603 132.577 100.732 130.998 102.344C129.42 103.929 127.505 104.735 125.253 104.735C123.002 104.735 121.216 103.929 119.612 102.344C118.033 100.758 117.231 98.8603 117.231 96.6767V15.3373C117.231 12.7377 118.137 10.5281 119.922 8.70845C121.786 6.83678 124.037 5.87495 126.625 5.87495H203.149L203.252 5.90094Z" fill="var(--fill-0, white)"/>
</svg>
