<svg preserveAspectRatio="none" width="100%" height="100%" overflow="visible" style="display: block;" viewBox="0 0 85.7365 191.502" fill="none" xmlns="http://www.w3.org/2000/svg">
<path id="Vector" d="M14.2075 50.171C13.6381 65.8202 27.328 78.9999 27.328 78.9999C27.328 78.9999 41.9237 66.834 42.4671 51.1848C43.0364 35.5356 29.3466 22.33 29.3466 22.33C29.3466 22.33 14.7768 34.5218 14.2075 50.171ZM4.3994 103.513C12.2407 117.057 30.8216 120.904 30.8216 120.904C30.8216 120.904 36.6961 102.812 28.8549 89.268C21.0136 75.7244 2.43261 71.8511 2.43261 71.8511C2.43261 71.8511 -3.44188 89.9439 4.3994 103.487V103.513ZM16.7177 152.567C30.0453 160.755 48.2381 155.296 48.2381 155.296C48.2381 155.296 44.8221 136.58 31.5204 128.391C18.1928 120.202 0 125.662 0 125.662C0 125.662 3.416 144.378 16.7177 152.567ZM54.3196 189.87C69.0446 195.121 85.7365 186.023 85.7365 186.023C85.7365 186.023 78.5421 168.424 63.8171 163.147C49.0921 157.896 32.4261 166.994 32.4261 166.994C32.4261 166.994 39.5946 184.593 54.3196 189.844V189.87ZM53.5432 11.8799C43.1917 23.6038 45.3914 42.5024 45.3914 42.5024C45.3914 42.5024 64.3864 42.3984 74.738 30.6485C85.0895 18.9246 82.8898 0 82.8898 0C82.8898 0 63.8948 0.129976 53.5432 11.8539V11.8799Z" fill="var(--fill-0, white)"/>
</svg>
