<svg preserveAspectRatio="none" width="100%" height="100%" overflow="visible" style="display: block;" viewBox="0 0 239.614 49.9845" fill="none" xmlns="http://www.w3.org/2000/svg">
<g id="Group">
<path id="Vector" d="M25.1391 29.6597H10.0288L6.40013 40.4004H0L14.3122 0.662774H20.9617L35.2739 40.4004H28.7647L25.1391 29.6597ZM11.5938 24.7035H23.5712L17.6667 7.27222H17.5015L11.5938 24.7035Z" fill="var(--fill-0, white)"/>
<path id="Vector_2" d="M66.1837 25.9158C66.1837 34.9189 61.3766 40.7033 54.1223 40.7033C52.2846 40.7996 50.4571 40.3753 48.8488 39.4789C47.2406 38.5824 45.9167 37.2501 45.0287 35.6345H44.8914V49.9845H38.9589V11.4283H44.7014V16.247H44.8105C45.7393 14.6391 47.0855 13.3137 48.706 12.4118C50.3265 11.5099 52.1606 11.0653 54.0132 11.1251C61.3484 11.1252 66.1837 16.9377 66.1837 25.9158ZM60.086 25.9158C60.086 20.0502 57.062 16.1939 52.4482 16.1939C47.9154 16.1939 44.8666 20.1314 44.8666 25.9158C44.8666 31.7533 47.9154 35.6627 52.4482 35.6627C57.062 35.6627 60.086 31.8345 60.086 25.9158Z" fill="var(--fill-0, white)"/>
<path id="Vector_3" d="M97.9939 25.9158C97.9939 34.9189 93.1868 40.7033 85.9325 40.7033C84.0948 40.7996 82.2673 40.3753 80.659 39.4788C79.0508 38.5824 77.7269 37.2501 76.8389 35.6345H76.7016V49.9845H70.7691V11.4283H76.5114V16.247H76.6205C77.5493 14.6391 78.8956 13.3137 80.5161 12.4118C82.1366 11.5099 83.9707 11.0652 85.8233 11.1251C93.1587 11.1251 97.9939 16.9376 97.9939 25.9158ZM91.8962 25.9158C91.8962 20.0502 88.8722 16.1939 84.2584 16.1939C79.7256 16.1939 76.6767 20.1314 76.6767 25.9158C76.6767 31.7533 79.7256 35.6626 84.2584 35.6626C88.8722 35.6626 91.8962 31.8345 91.8962 25.9158Z" fill="var(--fill-0, white)"/>
<path id="Vector_4" d="M119.018 29.3283C119.458 33.269 123.276 35.8563 128.495 35.8563C133.495 35.8563 137.093 33.2688 137.093 29.7157C137.093 26.6313 134.923 24.7845 129.786 23.5188L124.648 22.2782C117.369 20.5157 113.99 17.1032 113.99 11.5657C113.99 4.70942 119.95 4.50621e-05 128.414 4.50621e-05C136.79 4.50621e-05 142.533 4.70942 142.726 11.5657H136.737C136.379 7.60004 133.109 5.20631 128.33 5.20631C123.551 5.20631 120.28 7.6282 120.28 11.1532C120.28 13.9626 122.369 15.6157 127.479 16.8812L131.846 17.9562C139.98 19.8843 143.359 23.1594 143.359 28.9718C143.359 36.4062 137.451 41.0624 128.055 41.0624C119.264 41.0624 113.329 36.5156 112.945 29.328L119.018 29.3283Z" fill="var(--fill-0, white)"/>
<path id="Vector_5" d="M156.162 4.57209V11.4283H161.658V16.1377H156.162V32.1096C156.162 34.5908 157.263 35.7471 159.679 35.7471C160.331 35.7357 160.983 35.6898 161.63 35.6095V40.2907C160.544 40.4942 159.44 40.5863 158.335 40.5657C152.484 40.5657 150.202 38.3626 150.202 32.7439V16.1377H145.999V11.4283H150.202V4.57209H156.162Z" fill="var(--fill-0, white)"/>
<path id="Vector_6" d="M164.842 25.9159C164.842 16.8002 170.197 11.0721 178.549 11.0721C186.929 11.0721 192.26 16.8001 192.26 25.9159C192.26 35.0565 186.957 40.7596 178.549 40.7596C170.144 40.7596 164.842 35.0565 164.842 25.9159ZM186.215 25.9159C186.215 19.6627 183.356 15.9721 178.549 15.9721C173.742 15.9721 170.886 19.6909 170.886 25.9159C170.886 32.194 173.742 35.8565 178.549 35.8565C183.356 35.8565 186.215 32.194 186.215 25.9159Z" fill="var(--fill-0, white)"/>
<path id="Vector_7" d="M197.151 11.4283H202.809V16.3595H202.946C203.329 14.8194 204.229 13.4583 205.495 12.5051C206.761 11.5519 208.316 11.0646 209.898 11.1251C210.582 11.1227 211.263 11.1972 211.931 11.347V16.9095C211.067 16.6451 210.167 16.5238 209.265 16.5502C208.403 16.5151 207.544 16.6674 206.746 16.9967C205.949 17.3259 205.232 17.8243 204.644 18.4575C204.057 19.0908 203.614 19.8439 203.344 20.6653C203.075 21.4866 202.985 22.3567 203.083 23.2158V40.4001H197.151L197.151 11.4283Z" fill="var(--fill-0, white)"/>
<path id="Vector_8" d="M239.283 31.8909C238.485 37.1502 233.376 40.7596 226.839 40.7596C218.431 40.7596 213.212 35.1127 213.212 26.0534C213.212 16.9659 218.459 11.0721 226.589 11.0721C234.585 11.0721 239.614 16.5783 239.614 25.3627V27.4002H219.201V27.7596C219.107 28.8258 219.24 29.9 219.592 30.9107C219.943 31.9213 220.505 32.8455 221.241 33.6216C221.976 34.3978 222.868 35.0082 223.857 35.4124C224.845 35.8166 225.909 36.0052 226.976 35.9658C228.378 36.0975 229.785 35.772 230.987 35.0378C232.19 34.3036 233.124 33.1999 233.65 31.8908L239.283 31.8909ZM219.229 23.244H233.678C233.732 22.2853 233.587 21.3259 233.252 20.426C232.918 19.5261 232.402 18.7052 231.736 18.0148C231.071 17.3243 230.27 16.7792 229.384 16.4138C228.498 16.0483 227.547 15.8702 226.589 15.8909C225.623 15.8851 224.665 16.0711 223.771 16.4383C222.878 16.8055 222.065 17.3465 221.381 18.0301C220.696 18.7138 220.154 19.5265 219.785 20.4214C219.415 21.3162 219.226 22.2755 219.229 23.244Z" fill="var(--fill-0, white)"/>
</g>
</svg>
