<svg preserveAspectRatio="none" width="100%" height="100%" overflow="visible" style="display: block;" viewBox="0 0 591.177 146.483" fill="none" xmlns="http://www.w3.org/2000/svg">
<g id="title">
<g id="Vector">
<path d="M298.8 0C258.214 0 225.317 32.789 225.317 73.2416C225.317 113.694 258.22 146.483 298.8 146.483C339.381 146.483 372.284 113.694 372.284 73.2416C372.284 32.789 339.386 0 298.8 0ZM262.417 63.9335C258.43 63.9335 255.198 60.7132 255.198 56.739V47.4205C255.198 42.5451 259.164 38.5973 264.052 38.5973H290.505V32.9102C290.505 28.8571 293.801 25.5734 297.867 25.5734C301.933 25.5734 305.229 28.8571 305.229 32.9102V38.5973H333.607C338.495 38.5973 342.461 42.5503 342.461 47.4205V55.0419C342.461 59.3533 338.943 62.8372 334.619 62.8109C330.332 62.7845 326.872 59.3164 326.872 55.0419V50.7726L269.632 50.8675V56.739C269.632 60.7132 266.399 63.9335 262.412 63.9335H262.417ZM337.651 74.0586C337.15 75.9191 335.231 77.0207 333.364 76.5252C331.497 76.0245 330.39 74.1165 330.891 72.256C331.392 70.3954 333.311 69.2938 335.178 69.7893C337.045 70.29 338.152 72.198 337.651 74.0586ZM323.101 117.426H274.652C270.903 117.426 267.87 114.4 267.87 110.664V110.569C267.87 106.832 270.908 103.806 274.652 103.806H290.674V91.1461H280.522C276.778 91.1461 273.74 88.1208 273.74 84.3839V84.289C273.74 80.5573 276.778 77.5267 280.522 77.5267H290.674V70.6484H280.564C276.82 70.6484 273.782 67.623 273.782 63.8861C273.782 60.1492 276.82 57.1238 280.564 57.1238H317.142C320.886 57.1238 323.924 60.1492 323.924 63.8861C323.924 67.623 320.886 70.6484 317.142 70.6484H307.033V77.5267H317.279C318.761 77.5267 320.127 78.0063 321.245 78.8075C320.929 79.0815 320.607 79.3556 320.306 79.656C317.031 82.9186 315.317 87.0983 315.201 91.1461H307.027V103.806H323.096C326.872 103.806 329.931 106.853 329.931 110.616C329.931 114.379 326.872 117.426 323.096 117.426H323.101ZM337.013 96.3009C332.742 100.56 326.371 101.108 322.785 97.5342C319.199 93.9607 319.753 87.6095 324.024 83.3561C328.296 79.0973 334.667 78.5492 338.253 82.1227C341.839 85.6962 341.285 92.0474 337.013 96.3009ZM340.262 80.4256C338.896 79.0657 338.896 76.8573 340.262 75.4922C341.628 74.1323 343.843 74.1323 345.209 75.4922C346.574 76.852 346.574 79.0604 345.209 80.4256C343.843 81.7854 341.628 81.7854 340.262 80.4256ZM348.557 89.7072C346.69 90.208 344.771 89.1011 344.27 87.2406C343.769 85.38 344.876 83.4667 346.743 82.9713C348.61 82.4706 350.53 83.5774 351.031 85.438C351.532 87.2985 350.424 89.2118 348.557 89.7072Z" fill="var(--fill-0, #121212)"/>
<path d="M55.3734 107.765C53.8968 106.921 52.5257 106.078 51.049 105.34C50.0998 106.816 46.3027 111.454 39.236 111.454C31.0091 111.454 27.2121 106.183 27.2121 100.807C27.2121 95.4312 31.1146 90.1605 38.0758 90.1605C39.8689 90.1605 41.8729 90.4768 44.0878 91.3201C45.1425 88.0522 45.7754 85.2061 45.7754 82.9924C45.7754 78.6704 43.3495 76.3513 37.3375 76.3513C36.3883 76.3513 35.3335 76.4567 34.1733 76.5621C30.5872 76.9838 27.7395 78.1433 25.2081 79.9354L25.8409 112.719L14.6608 113.246L14.0279 97.0124C12.7623 99.964 11.4966 103.021 10.2309 106.289L0.105473 102.389C3.58609 93.7446 7.27765 84.2573 13.1842 76.9838L13.0787 75.6134H0.210946L0 63.807H12.5513L12.2349 55.5848L24.7862 54.9523L24.9972 67.7074C27.8449 66.4424 31.1146 65.7045 34.7007 65.3883C35.8609 65.2828 36.9156 65.2828 37.9704 65.2828C52.1038 65.2828 57.5884 73.8214 57.5884 84.0465C57.5884 88.0523 56.7446 92.2688 55.268 96.38C56.9555 97.1179 58.5376 97.8558 60.4362 98.8045L55.3734 107.765ZM40.8181 101.124C40.8181 99.964 39.8689 99.0153 38.7087 99.0153C37.6539 99.0153 36.7047 99.964 36.7047 101.124C36.7047 102.283 37.6539 103.232 38.7087 103.232C39.8689 103.232 40.8181 102.283 40.8181 101.124Z" fill="var(--fill-0, #121212)"/>
<path d="M83.2184 98.8045C88.8085 100.28 94.3985 101.018 99.9886 101.018C106.844 101.018 113.806 99.964 121.189 97.8557L125.408 109.557C119.185 112.192 110.958 113.562 102.731 113.562C94.504 113.562 87.0154 112.403 80.4761 110.189L83.2184 98.8045ZM120.978 83.3086L108.426 82.3599L109.903 74.1376L81.5308 74.243L81.1089 61.6988H125.619L120.978 83.3086Z" fill="var(--fill-0, #121212)"/>
<path d="M203.985 83.7303C203.985 93.2175 199.344 103.97 190.168 113.457L179.937 107.027C186.266 99.437 190.168 91.3201 190.168 84.8898C190.168 79.5137 187.426 75.2972 181.098 73.5051C180.57 91.0038 177.195 106.183 160.741 104.918C151.143 104.181 145.659 95.4312 145.659 85.944C145.659 73.716 154.729 60.0121 176.035 60.0121C194.704 60.0121 203.985 70.4481 203.985 83.7303ZM168.335 73.2943C160.636 75.1918 157.682 81.2004 157.682 86.1548C157.682 89.9497 159.476 93.0067 162.218 93.0067C167.07 93.0067 167.913 84.679 168.335 73.2943Z" fill="var(--fill-0, #121212)"/>
<path d="M446.785 73.3997H428.643L430.858 91.4255L415.775 93.7446L414.299 83.7303L417.885 82.9924L416.514 73.5051H392.466L392.255 62.015H414.826L413.877 55.3739L426.323 54.0036L427.272 61.9096H446.574L446.785 73.3997ZM402.802 89.4226C409.763 95.8529 415.564 99.2261 426.956 104.181L422.209 114.089C411.346 110.927 405.017 107.132 395.103 98.5936L402.802 89.4226Z" fill="var(--fill-0, #121212)"/>
<path d="M491.083 64.1233C508.486 65.5991 511.756 72.8726 511.756 81.2003C511.756 82.9924 511.651 84.7844 511.44 86.6819C510.701 93.9554 509.436 102.916 507.01 113.141L491.083 112.508L491.611 100.175L497.834 100.491L499.521 89.2118C499.627 88.0522 499.732 86.8927 499.732 85.8386C499.732 80.6733 497.834 77.5109 489.185 76.773L484.017 113.141L471.887 111.56L476.212 76.8784C473.469 77.0892 470.411 77.3 467.035 77.7217L465.77 65.1774C470.2 64.6504 474.102 64.3341 477.688 64.1233L478.848 55.0577L492.033 57.166L491.083 64.1233ZM518.612 55.901L510.279 57.0606L507.854 43.1459L517.135 41.881L518.612 55.901ZM512.6 60.5392L524.94 59.5905L526.206 83.414L514.287 84.3628L512.6 60.5392ZM529.37 54.8469L521.249 55.6902L519.877 41.4593L528.421 40.616L529.37 54.8469Z" fill="var(--fill-0, #121212)"/>
<path d="M544.769 89.2118L547.195 57.693L561.223 58.958L558.586 91.6363C558.059 98.0666 562.067 101.44 566.602 101.44C571.138 101.44 576.411 98.172 578.521 91.6363L591.177 96.8016C586.326 106.605 577.993 113.879 567.657 113.879C553.313 113.879 543.714 102.705 544.769 89.2118Z" fill="var(--fill-0, #121212)"/>
</g>
</g>
</svg>
