<svg preserveAspectRatio="none" width="100%" height="100%" overflow="visible" style="display: block;" viewBox="0 0 382 128" fill="none" xmlns="http://www.w3.org/2000/svg">
<g id="Group">
<path id="Vector" d="M351.58 0.000416H30.4373C29.2667 0.000416 28.1101 0.000416 26.9426 0.006816C25.9653 0.013216 24.9958 0.031808 24.0091 0.047456C21.8655 0.0727418 19.727 0.26178 17.6121 0.612928C15.5001 0.97172 13.4544 1.64815 11.5439 2.61933C9.63586 3.59873 7.89239 4.87135 6.37678 6.39104C4.85322 7.90645 3.58321 9.65807 2.61559 11.5785C1.6453 13.4952 0.972495 15.549 0.620418 17.6692C0.264993 19.7866 0.0737363 21.9285 0.0483629 24.0756C0.0187386 25.0567 0.0156102 26.0411 0 27.0223V100.988C0.0156102 101.982 0.0187386 102.944 0.0483629 103.938C0.073744 106.085 0.265001 108.227 0.620418 110.344C0.971522 112.465 1.64436 114.52 2.61559 116.438C3.58277 118.352 4.85296 120.097 6.37678 121.604C7.88665 123.13 9.63124 124.404 11.5439 125.375C13.4544 126.349 15.4999 127.03 17.6121 127.394C19.7273 127.742 21.8656 127.931 24.0091 127.96C24.9958 127.982 25.9653 127.994 26.9426 127.994C28.1101 128 29.2667 128 30.4373 128H351.58C352.727 128 353.893 128 355.04 127.994C356.013 127.994 357.011 127.982 357.983 127.96C360.123 127.933 362.257 127.744 364.368 127.394C366.487 127.027 368.54 126.347 370.459 125.375C372.37 124.403 374.113 123.13 375.622 121.604C377.142 120.091 378.415 118.347 379.394 116.438C380.358 114.519 381.024 112.464 381.37 110.344C381.726 108.226 381.924 106.085 381.963 103.938C381.975 102.944 381.975 101.982 381.975 100.988C382 99.8254 382 98.6692 382 97.4878V30.516C382 29.3442 382 28.1817 381.975 27.0223C381.975 26.0411 381.975 25.0567 381.963 24.0754C381.924 21.9282 381.726 19.7868 381.37 17.669C381.023 15.5501 380.357 13.4964 379.394 11.5784C377.423 7.72904 374.299 4.5957 370.459 2.61904C368.54 1.65023 366.487 0.973985 364.368 0.61264C362.257 0.259945 360.123 0.0708408 357.983 0.047008C357.011 0.031392 356.013 0.01264 355.04 0.0064C353.893 0 352.727 0.000416 351.58 0.000416Z" fill="var(--fill-0, #A6A6A6)"/>
<path id="Vector_2" d="M26.9581 125.2C25.9855 125.2 25.0363 125.188 24.0713 125.166C22.0723 125.14 20.0779 124.965 18.1045 124.644C16.2645 124.326 14.482 123.735 12.8158 122.891C11.1649 122.053 9.65911 120.954 8.35618 119.637C7.03439 118.336 5.93394 116.826 5.09843 115.169C4.25373 113.5 3.66914 111.712 3.36503 109.866C3.03663 107.882 2.85894 105.876 2.83352 103.866C2.81328 103.191 2.78678 100.944 2.78678 100.944V27.0219C2.78678 27.0219 2.815 24.8094 2.83368 24.1593C2.85802 22.1519 3.03467 20.1493 3.3621 18.1687C3.66676 16.3176 4.2518 14.524 5.09697 12.85C5.9294 11.1934 7.02374 9.68274 8.33757 8.37656C9.64992 7.05798 11.1605 5.95392 12.8142 5.10466C14.4766 4.26269 16.2557 3.67593 18.0921 3.36405C20.0719 3.03946 22.0732 2.86397 24.0792 2.83906L26.9596 2.79999H355.025L357.939 2.84063C359.927 2.8643 361.91 3.03823 363.872 3.36091C365.727 3.67671 367.525 4.26756 369.206 5.11403C372.519 6.82554 375.215 9.53331 376.915 12.8578C377.747 14.5202 378.323 16.2992 378.624 18.1344C378.955 20.1312 379.141 22.1496 379.179 24.1734C379.188 25.0797 379.188 26.0531 379.188 27.0219C379.213 28.2219 379.213 29.3641 379.213 30.5156V97.4874C379.213 98.6499 379.213 99.7843 379.188 100.928C379.188 101.969 379.188 102.922 379.175 103.903C379.138 105.891 378.956 107.873 378.63 109.834C378.332 111.694 377.751 113.496 376.906 115.178C376.065 116.818 374.97 118.314 373.664 119.612C372.36 120.937 370.851 122.041 369.197 122.884C367.52 123.736 365.725 124.329 363.872 124.644C361.899 124.967 359.904 125.141 357.905 125.166C356.97 125.188 355.991 125.2 355.04 125.2L351.58 125.206L26.9581 125.2Z" fill="var(--fill-0, black)"/>
</g>
</svg>
