<svg preserveAspectRatio="none" width="100%" height="100%" overflow="visible" style="display: block;" viewBox="0 0 220.726 20.3466" fill="none" xmlns="http://www.w3.org/2000/svg">
<g id="Group">
<path id="Vector" d="M6.88021 0.940926C8.12397 0.851456 9.37202 1.03981 10.5344 1.49239C11.6967 1.94498 12.7444 2.65052 13.6018 3.55812C14.4592 4.46572 15.1049 5.55275 15.4925 6.74082C15.88 7.92889 15.9997 9.18837 15.8429 10.4284C15.8429 16.5284 12.554 20.0348 6.88021 20.0348H9.19809e-06V0.940926H6.88021ZM2.95845 17.3345H6.54975C7.4385 17.3878 8.3279 17.2417 9.15322 16.9069C9.97855 16.5722 10.719 16.0571 11.3208 15.3993C11.9225 14.7415 12.3703 13.9575 12.6316 13.1043C12.8929 12.2511 12.9612 11.3503 12.8314 10.4673C12.9518 9.58786 12.8766 8.69259 12.6113 7.84567C12.3459 6.99874 11.897 6.22113 11.2967 5.56855C10.6963 4.91598 9.95939 4.40459 9.13872 4.07103C8.31805 3.73748 7.43395 3.59001 6.54975 3.6392H2.95845V17.3345Z" fill="var(--fill-0, white)"/>
<path id="Vector_2" d="M19.1845 12.8235C19.0941 11.8765 19.2022 10.9211 19.5018 10.0185C19.8013 9.11585 20.2858 8.28596 20.924 7.58202C21.5623 6.87807 22.3403 6.31562 23.2081 5.93074C24.0759 5.54586 25.0144 5.34704 25.9634 5.34704C26.9123 5.34704 27.8508 5.54586 28.7187 5.93074C29.5865 6.31562 30.3645 6.87807 31.0027 7.58202C31.641 8.28596 32.1255 9.11585 32.425 10.0185C32.7246 10.9211 32.8327 11.8765 32.7423 12.8235C32.8344 13.7714 32.7276 14.7281 32.4288 15.6322C32.1301 16.5363 31.6459 17.3677 31.0075 18.073C30.369 18.7783 29.5904 19.342 28.7218 19.7277C27.8531 20.1134 26.9135 20.3126 25.9634 20.3126C25.0133 20.3126 24.0737 20.1134 23.205 19.7277C22.3363 19.342 21.5577 18.7783 20.9193 18.073C20.2809 17.3677 19.7967 16.5363 19.498 15.6322C19.1992 14.7281 19.0924 13.7714 19.1845 12.8235ZM29.8243 12.8235C29.8243 9.70003 28.4246 7.87347 25.9681 7.87347C23.5022 7.87347 22.115 9.70003 22.115 12.8235C22.115 15.9719 23.5023 17.7844 25.9681 17.7844C28.4246 17.7844 29.8243 15.9594 29.8243 12.8235Z" fill="var(--fill-0, white)"/>
<path id="Vector_3" d="M50.7645 20.0345H47.8216L44.8507 9.42199H44.6262L41.6678 20.0345H38.7529L34.7907 5.62513H37.6681L40.2431 16.6203H40.4551L43.4104 5.62513H46.132L49.0873 16.6203H49.3118L51.8743 5.62513H54.7112L50.7645 20.0345Z" fill="var(--fill-0, white)"/>
<path id="Vector_4" d="M58.0438 5.62507H60.7746V7.91412H60.9866C61.3462 7.09197 61.9528 6.40278 62.7217 5.94261C63.4906 5.48243 64.3836 5.27419 65.2762 5.34692C65.9756 5.29421 66.6779 5.39992 67.3311 5.65623C67.9842 5.91254 68.5714 6.31287 69.0493 6.82757C69.5271 7.34227 69.8833 7.95814 70.0914 8.62957C70.2996 9.30099 70.3543 10.0108 70.2517 10.7063V20.0343H67.4148V11.4204C67.4148 9.10478 66.411 7.9532 64.3129 7.9532C63.8381 7.93102 63.364 8.01204 62.9233 8.1907C62.4826 8.36935 62.0856 8.64142 61.7596 8.98826C61.4336 9.33509 61.1863 9.74848 61.0345 10.2001C60.8828 10.6517 60.8303 11.1309 60.8806 11.6047V20.0344H58.0437L58.0438 5.62507Z" fill="var(--fill-0, white)"/>
<path id="Vector_5" d="M74.7719 5.19689e-05H77.6088V20.0344H74.7719V5.19689e-05Z" fill="var(--fill-0, white)"/>
<path id="Vector_6" d="M81.5523 12.8236C81.462 11.8766 81.5702 10.9211 81.8698 10.0184C82.1695 9.11579 82.654 8.28587 83.2923 7.58191C83.9306 6.87795 84.7087 6.31549 85.5766 5.9306C86.4445 5.54571 87.383 5.34689 88.332 5.34689C89.2811 5.34689 90.2196 5.54571 91.0875 5.9306C91.9554 6.31549 92.7334 6.87795 93.3718 7.58191C94.0101 8.28587 94.4946 9.11579 94.7942 10.0184C95.0939 10.9211 95.202 11.8766 95.1117 12.8236C95.2037 13.7715 95.0968 14.7283 94.7979 15.6324C94.4991 16.5364 94.0148 17.3678 93.3763 18.0731C92.7378 18.7784 91.9592 19.342 91.0905 19.7277C90.2218 20.1134 89.2822 20.3127 88.332 20.3127C87.3819 20.3127 86.4423 20.1134 85.5736 19.7277C84.7048 19.342 83.9262 18.7784 83.2877 18.0731C82.6492 17.3678 82.165 16.5364 81.8661 15.6324C81.5673 14.7283 81.4604 13.7715 81.5523 12.8236ZM92.1922 12.8236C92.1922 9.70015 90.7924 7.87359 88.3359 7.87359C85.87 7.87359 84.4829 9.70015 84.4829 12.8236C84.4829 15.9721 85.8701 17.7845 88.3359 17.7845C90.7925 17.7845 92.1922 15.9595 92.1922 12.8236Z" fill="var(--fill-0, white)"/>
<path id="Vector_7" d="M98.0979 15.9595C98.0979 13.3658 100.025 11.8705 103.444 11.658L107.338 11.433V10.1892C107.338 8.66733 106.334 7.80797 104.395 7.80797C102.812 7.80797 101.714 8.39079 101.399 9.40954H98.6528C98.9428 6.93453 101.265 5.34704 104.526 5.34704C108.13 5.34704 110.162 7.14545 110.162 10.1892V20.0345H107.432V18.0095H107.207C106.752 18.7359 106.112 19.3281 105.353 19.7255C104.595 20.123 103.744 20.3116 102.889 20.2719C102.286 20.3349 101.676 20.2703 101.099 20.0825C100.522 19.8947 99.9907 19.5877 99.5392 19.1814C99.0878 18.7751 98.7263 18.2785 98.478 17.7235C98.2298 17.1686 98.1003 16.5677 98.0979 15.9595ZM107.338 14.7283V13.5236L103.828 13.7486C101.848 13.8814 100.95 14.5564 100.95 15.8267C100.95 17.1236 102.073 17.8782 103.616 17.8782C104.068 17.9241 104.525 17.8784 104.959 17.7437C105.393 17.609 105.796 17.3881 106.143 17.0942C106.49 16.8003 106.775 16.4394 106.98 16.033C107.186 15.6265 107.307 15.1828 107.338 14.7283Z" fill="var(--fill-0, white)"/>
<path id="Vector_8" d="M113.892 12.8235C113.892 8.27042 116.227 5.38604 119.858 5.38604C120.757 5.34454 121.648 5.56023 122.429 6.0079C123.209 6.45556 123.847 7.1167 124.266 7.91404H124.478V5.19689e-05H127.315V20.0344H124.597V17.7578H124.372C123.92 18.5498 123.261 19.2027 122.465 19.6459C121.669 20.089 120.768 20.3055 119.858 20.2719C116.202 20.2721 113.892 17.3876 113.892 12.8235ZM116.822 12.8235C116.822 15.8798 118.259 17.7189 120.663 17.7189C123.054 17.7189 124.532 15.8533 124.532 12.8361C124.532 9.83292 123.038 7.94072 120.663 7.94072C118.275 7.94072 116.822 9.79228 116.822 12.8235Z" fill="var(--fill-0, white)"/>
<path id="Vector_9" d="M139.052 12.8235C138.962 11.8765 139.07 10.9211 139.37 10.0185C139.669 9.11585 140.154 8.28596 140.792 7.58202C141.43 6.87807 142.208 6.31562 143.076 5.93074C143.944 5.54586 144.882 5.34704 145.831 5.34704C146.78 5.34704 147.719 5.54586 148.587 5.93074C149.454 6.31562 150.232 6.87807 150.871 7.58202C151.509 8.28596 151.993 9.11585 152.293 10.0185C152.592 10.9211 152.701 11.8765 152.61 12.8235C152.702 13.7714 152.595 14.7281 152.297 15.6322C151.998 16.5363 151.514 17.3677 150.875 18.073C150.237 18.7783 149.458 19.342 148.59 19.7277C147.721 20.1134 146.781 20.3126 145.831 20.3126C144.881 20.3126 143.942 20.1134 143.073 19.7277C142.204 19.342 141.426 18.7783 140.787 18.073C140.149 17.3677 139.665 16.5363 139.366 15.6322C139.067 14.7281 138.96 13.7714 139.052 12.8235ZM149.692 12.8235C149.692 9.70003 148.292 7.87347 145.836 7.87347C143.37 7.87347 141.983 9.70003 141.983 12.8235C141.983 15.9719 143.37 17.7844 145.836 17.7844C148.292 17.7844 149.692 15.9594 149.692 12.8235Z" fill="var(--fill-0, white)"/>
<path id="Vector_10" d="M156.416 5.62507H159.147V7.91412H159.359C159.719 7.09197 160.325 6.40278 161.094 5.94261C161.863 5.48243 162.756 5.27419 163.649 5.34692C164.348 5.29421 165.05 5.39992 165.704 5.65623C166.357 5.91254 166.944 6.31287 167.422 6.82757C167.9 7.34227 168.256 7.95814 168.464 8.62957C168.672 9.30099 168.727 10.0108 168.624 10.7063V20.0343H165.787V11.4204C165.787 9.10478 164.783 7.9532 162.685 7.9532C162.211 7.93102 161.736 8.01204 161.296 8.1907C160.855 8.36935 160.458 8.64142 160.132 8.98826C159.806 9.33509 159.559 9.74848 159.407 10.2001C159.255 10.6517 159.203 11.1309 159.253 11.6047V20.0344H156.416V5.62507Z" fill="var(--fill-0, white)"/>
<path id="Vector_11" d="M184.654 2.03757V5.69069H187.769V8.08602H184.654V15.4954C184.654 17.0048 185.275 17.6657 186.687 17.6657C187.048 17.6645 187.41 17.6426 187.769 17.6001V19.9688C187.259 20.0602 186.743 20.1088 186.225 20.1141C183.071 20.1141 181.814 19.0016 181.814 16.2235V8.08589H179.532V5.69056H181.814V2.03757H184.654Z" fill="var(--fill-0, white)"/>
<path id="Vector_12" d="M191.644 5.19689e-05H194.456V7.94069H194.68C195.057 7.11086 195.681 6.41777 196.465 5.95586C197.249 5.49395 198.157 5.28568 199.063 5.35944C199.759 5.32149 200.455 5.43793 201.1 5.70047C201.746 5.963 202.326 6.36515 202.799 6.87824C203.272 7.39132 203.626 8.00268 203.836 8.66871C204.046 9.33475 204.107 10.039 204.014 10.7313V20.0344H201.174V11.4328C201.174 9.13128 200.105 7.96565 198.1 7.96565C197.613 7.92557 197.122 7.99276 196.663 8.16253C196.204 8.3323 195.788 8.60055 195.443 8.94851C195.098 9.29647 194.834 9.71574 194.667 10.177C194.501 10.6382 194.438 11.1303 194.481 11.6188V20.0344H191.644L191.644 5.19689e-05Z" fill="var(--fill-0, white)"/>
<path id="Vector_13" d="M220.555 16.1437C220.17 17.4606 219.335 18.5998 218.196 19.3619C217.057 20.1239 215.688 20.4604 214.326 20.3124C213.379 20.3375 212.438 20.1557 211.568 19.7796C210.698 19.4035 209.921 18.8421 209.289 18.1345C208.657 17.4269 208.186 16.5899 207.91 15.6816C207.633 14.7734 207.557 13.8157 207.686 12.875C207.56 11.9313 207.638 10.9715 207.914 10.0606C208.19 9.14965 208.658 8.30879 209.286 7.59495C209.915 6.88112 210.689 6.31097 211.556 5.92311C212.424 5.53524 213.364 5.33872 214.314 5.34684C218.314 5.34684 220.727 8.08604 220.727 12.6108V13.6031H210.576V13.7625C210.532 14.2913 210.598 14.8235 210.771 15.3251C210.944 15.8267 211.219 16.2866 211.579 16.6753C211.94 17.0639 212.377 17.3728 212.864 17.5821C213.35 17.7913 213.875 17.8964 214.404 17.8905C215.083 17.9721 215.77 17.8497 216.379 17.5386C216.988 17.2275 217.491 16.742 217.824 16.1436L220.555 16.1437ZM210.576 11.5H217.837C217.872 11.0163 217.807 10.5306 217.644 10.0739C217.481 9.61719 217.225 9.19966 216.892 8.84811C216.559 8.49657 216.156 8.21879 215.709 8.03263C215.262 7.84647 214.782 7.75604 214.298 7.76716C213.808 7.76098 213.321 7.85332 212.866 8.03874C212.412 8.22417 211.999 8.49892 211.652 8.8468C211.305 9.19468 211.031 9.60866 210.846 10.0643C210.662 10.52 210.57 11.0081 210.576 11.5Z" fill="var(--fill-0, white)"/>
</g>
</svg>
