<svg preserveAspectRatio="none" width="100%" height="100%" overflow="visible" style="display: block;" viewBox="0 0 56.5561 69.6833" fill="none" xmlns="http://www.w3.org/2000/svg">
<g id="&#60;Group&#62;">
<path id="&#60;Path&#62;" d="M47.237 37.0575C47.2713 34.3866 47.9791 31.7677 49.2944 29.4447C50.6097 27.1216 52.4898 25.1698 54.7598 23.7709C53.3177 21.7064 51.4153 20.0074 49.2036 18.8088C46.9919 17.6102 44.5319 16.9451 42.0189 16.8663C36.6583 16.3023 31.4615 20.0818 28.7298 20.0818C25.9453 20.0818 21.7395 16.9223 17.2105 17.0157C14.2811 17.1106 11.4261 17.9645 8.92372 19.4943C6.42137 21.0241 4.357 23.1776 2.93176 25.7449C-3.24209 36.4598 1.36304 52.2072 7.27707 60.8683C10.236 65.1095 13.6941 69.8469 18.219 69.6789C22.6469 69.4948 24.3006 66.8486 29.6454 66.8486C34.9406 66.8486 36.4922 69.6789 41.1088 69.5721C45.8602 69.4948 48.8537 65.3121 51.7088 61.0308C53.8348 58.0089 55.4707 54.669 56.556 51.1348C53.7956 49.9645 51.44 48.0055 49.7828 45.5022C48.1256 42.9988 47.2402 40.0619 47.237 37.0575Z" fill="var(--fill-0, white)"/>
<path id="&#60;Path&#62;_2" d="M38.5176 11.17C41.1082 8.05252 42.3845 4.04554 42.0754 0C38.1176 0.416706 34.4616 2.31289 31.836 5.31075C30.5522 6.77528 29.569 8.47908 28.9425 10.3247C28.3161 12.1704 28.0586 14.1217 28.1849 16.0672C30.1646 16.0876 32.1231 15.6575 33.9128 14.8092C35.7026 13.961 37.2771 12.7166 38.5176 11.17Z" fill="var(--fill-0, white)"/>
</g>
</svg>
