<svg preserveAspectRatio="none" width="100%" height="100%" overflow="visible" style="display: block;" viewBox="0 0 94.3282 139.699" fill="none" xmlns="http://www.w3.org/2000/svg">
<path id="Vector" d="M49.4285 115.653C53.8797 115.653 57.5803 113.886 60.5046 110.35C63.4289 106.685 64.904 101.278 64.904 94.0772C64.904 81.0015 59.573 74.4507 48.885 74.4507C41.6131 74.4507 35.5575 77.986 30.7699 85.0568C30.1747 85.9926 29.9418 87.0584 30.0712 88.2282C32.659 106.503 39.1029 115.627 49.4285 115.627V115.653ZM82.5016 8.16254C85.6588 10.1642 87.2633 13.1796 87.2633 17.1829C87.2633 20.3544 86.1505 23.1879 83.9249 25.6574C81.6994 28.127 78.7492 29.4787 75.1261 29.7127C74.5309 29.8427 73.9616 29.8947 73.3664 29.8947C70.4421 29.8947 67.673 29.2448 65.0852 27.945C61.695 26.4113 58.4602 25.6574 55.4065 25.6574C39.5687 25.6574 30.951 38.1612 29.5277 63.1427C29.3983 63.5066 29.4759 63.7406 29.7089 63.8446C30.0712 63.9745 30.3041 63.8966 30.4076 63.6626C33.6942 59.9973 37.6278 57.1118 42.2083 55.0062C46.8924 52.8745 51.1365 51.8347 54.8889 51.8347C66.7414 51.8347 76.2389 55.3701 83.4074 62.4408C90.6793 69.5116 94.3282 80.0657 94.3282 94.0772C94.3282 108.089 90.0582 119.059 81.4923 127.325C73.0558 135.566 62.6008 139.699 50.1531 139.699C43.5799 139.699 37.369 138.399 31.4945 135.8C25.7494 133.096 20.4701 129.093 15.6567 123.79C10.8432 118.487 7.03903 111.286 4.21824 102.214C1.39745 93.1413 0 82.7172 0 70.9153C0 59.1134 1.47508 48.6373 4.39939 39.4349C7.32369 30.1286 11.309 22.6939 16.3554 17.1569C21.4018 11.4899 27.0433 7.2527 33.2542 4.41921C39.5946 1.48174 46.2713 0 53.3103 0C64.2312 0 73.9616 2.70351 82.5275 8.13654L82.5016 8.16254Z" fill="var(--fill-0, white)"/>
</svg>
