<svg preserveAspectRatio="none" width="100%" height="100%" overflow="visible" style="display: block;" viewBox="0 0 102.713 48.7153" fill="none" xmlns="http://www.w3.org/2000/svg">
<path id="Vector" d="M29.5536 14.6094C29.9418 15.2593 30.1229 15.9611 30.1229 16.637C30.1229 17.0529 30.0453 17.4949 29.9159 17.9368C29.5277 19.0806 28.8031 19.9384 27.7421 20.4843C27.1469 20.7963 26.5517 20.9522 25.9306 20.9522C25.4906 20.9522 25.0248 20.8743 24.5849 20.7443C23.4979 20.3544 22.7216 19.6525 22.204 18.6127C21.0912 16.533 19.8231 14.4274 18.3481 12.2958C17.9599 11.6719 17.7787 11.022 17.7787 10.3721C17.7787 10.0862 17.8046 9.80024 17.8823 9.48829C18.1152 8.47448 18.7103 7.7726 19.5902 7.35668C20.3148 6.96675 21.0653 6.78478 21.8158 6.78478C22.1522 6.78478 22.5146 6.83678 22.9028 6.94076C24.0673 7.17472 25.0248 7.77261 25.6976 8.70845C27.121 10.6581 28.389 12.6337 29.5536 14.6094ZM16.8212 28.9588C17.2612 28.7768 17.7011 28.6989 18.1152 28.6989C18.6327 28.6989 19.1244 28.8288 19.6161 29.1148C20.5478 29.5567 21.143 30.3106 21.3759 31.2984C21.4535 31.6883 21.4794 32.0523 21.4794 32.4422C21.4794 33.1441 21.3241 33.8199 21.0136 34.4698C20.496 35.5096 19.7196 36.2635 18.6845 36.7054C14.9062 38.3431 10.5327 40.2148 5.53806 42.2944C5.02048 42.5024 4.5029 42.6064 4.03709 42.6064C3.44187 42.6064 2.87253 42.4764 2.32908 42.1904C1.24217 41.6965 0.543459 40.8907 0.207035 39.7989C0.0776411 39.305 0 38.863 0 38.4471C0 37.7452 0.155254 37.0953 0.465799 36.4715C1.00925 35.3796 1.86328 34.6518 3.00195 34.2359C3.83007 33.9499 4.63231 33.69 5.38279 33.404C5.71922 33.3 5.90035 33.0661 5.84859 32.7281L4.81346 6.99274C4.78758 5.84895 5.14988 4.86113 5.90036 4.02928C6.65085 3.19743 7.60838 2.7555 8.74705 2.72951H8.90231C9.96334 2.72951 10.9209 3.09344 11.6972 3.82131C12.5253 4.57517 12.9653 5.537 12.9912 6.68079L13.871 29.5827C13.871 29.7127 13.9228 29.8166 14.0263 29.8946C14.1298 29.9726 14.2592 29.9726 14.3886 29.9466C15.0873 29.6607 15.8896 29.3487 16.7694 28.9588H16.8212ZM47.6429 39.9808C48.3416 40.8907 48.678 41.9045 48.678 42.9963C48.678 43.1263 48.678 43.2822 48.6262 43.4642C48.5227 44.764 48.0052 45.8558 47.0735 46.7916L46.9183 46.9476C46.1937 47.6495 45.3655 47.9874 44.4339 47.9874C44.3045 47.9874 44.1492 47.9874 43.9681 47.9354C42.8294 47.8054 41.9236 47.2595 41.2767 46.3237C39.7498 44.1661 37.7054 41.5406 35.0916 38.4471C34.8846 38.1612 34.6776 38.1612 34.4705 38.4471C31.5721 42.2684 27.975 45.4659 23.705 48.0394C22.9027 48.4813 22.0746 48.7153 21.2206 48.7153C20.8324 48.7153 20.4701 48.6893 20.0819 48.6113C18.8656 48.2993 17.8046 47.6495 16.873 46.6356C16.8471 46.5577 16.7954 46.5057 16.7177 46.4797C16.1743 45.8558 15.8896 45.1539 15.8896 44.4C15.8896 44.1661 15.8896 43.9321 15.9413 43.7242C16.1484 42.6843 16.7177 41.9045 17.6493 41.3846C23.4462 38.3691 27.742 34.1059 30.5887 28.5949C33.4613 23.0579 35.4281 15.8572 36.4632 6.99274C36.5667 5.77096 37.0843 4.78314 38.016 4.02928C38.8182 3.37939 39.724 3.04146 40.7591 3.04146H41.1732C42.3636 3.14544 43.3211 3.66534 44.0716 4.60118C44.6927 5.35504 45.0032 6.21288 45.0032 7.14871C45.0032 7.33068 45.0032 7.51265 44.9515 7.72061C43.8128 16.637 41.9495 24.0197 39.3875 29.8946C39.2581 30.2066 39.284 30.4925 39.491 30.7785C43.2952 34.8598 46.0125 37.9012 47.6429 39.9548V39.9808ZM80.6383 39.123C80.6383 39.4609 80.8195 39.6429 81.1559 39.6429H98.8311C99.8922 39.6429 100.824 40.0328 101.574 40.7867C102.325 41.5406 102.713 42.4764 102.713 43.5422C102.713 44.608 102.325 45.5438 101.574 46.2977C100.824 47.0516 99.8922 47.4415 98.8311 47.4415H57.5286C56.4675 47.4415 55.5359 47.0516 54.7854 46.2977C54.0349 45.5438 53.6467 44.608 53.6467 43.5422C53.6467 42.4764 54.0349 41.5406 54.7854 40.7867C55.5359 40.0328 56.4675 39.6429 57.5286 39.6429H71.7619C72.0983 39.6429 72.2795 39.4609 72.2795 39.123V4.15926C72.2795 3.01547 72.6677 2.02764 73.4699 1.24778C74.298 0.415924 75.2814 0 76.4459 0C77.6105 0 78.6198 0.415924 79.3961 1.24778C80.2243 2.05363 80.6383 3.01547 80.6383 4.15926V14.1675C80.6383 14.5054 80.8195 14.6874 81.1559 14.6874H95.0269C96.1139 14.6874 97.0196 15.0773 97.7701 15.8312C98.5206 16.585 98.9088 17.5469 98.9088 18.6387C98.9088 19.7305 98.5206 20.6403 97.7701 21.3942C97.0196 22.148 96.088 22.538 95.0269 22.538H81.1559C80.8195 22.538 80.6383 22.7199 80.6383 23.0579V39.071V39.123Z" fill="var(--fill-0, white)"/>
</svg>
