<svg preserveAspectRatio="none" width="100%" height="100%" overflow="visible" style="display: block;" viewBox="0 0 385.102 61.0631" fill="none" xmlns="http://www.w3.org/2000/svg">
<path id="Vector" d="M11.8525 29.6867C11.8007 37.0694 11.0761 45.2319 9.67867 54.1743C9.18698 57.0598 7.53073 58.3076 4.7617 57.9436C1.94091 57.6577 0.776368 56.2279 1.26807 53.6804C2.76904 44.1921 3.5454 36.2115 3.57128 29.6867C3.64891 26.9832 5.124 25.6054 7.99655 25.6054C10.4809 25.7614 11.7749 27.1391 11.8525 29.6867ZM15.9672 22.356H4.99461C1.65624 22.356 0 20.6923 0 17.3389C0 13.9855 1.65624 12.3218 4.99461 12.3218H15.9672V9.30633C15.9672 6.21289 17.4941 4.67916 20.5736 4.67916C23.6532 4.67916 25.2577 6.21289 25.2577 9.30633V12.3218H29.683C29.1395 11.308 28.8807 10.2162 28.8807 8.99439C28.8807 7.07073 29.5536 5.43303 30.8734 4.05527C32.1932 2.72951 33.8236 2.05363 35.7386 2.05363C37.6536 2.05363 39.284 2.75551 40.6038 4.13326C41.9754 5.45902 42.6483 7.09673 42.6483 9.02039C42.6483 10.944 41.9754 12.5817 40.6556 13.9075C40.6038 13.9595 40.578 13.9855 40.5262 14.0375C41.0955 14.8433 41.4061 15.9351 41.4061 17.3649C41.4061 20.7183 39.7498 22.382 36.4115 22.382H25.2577V53.5764C25.2577 56.6699 23.7309 58.2036 20.6513 58.2036C17.5717 58.2036 15.9672 56.6699 15.9672 53.5764V22.382V22.356ZM29.4242 29.6867C29.5018 27.1391 30.7958 25.7874 33.2801 25.6054C36.1527 25.6054 37.6278 26.9572 37.7054 29.6867C37.7572 36.2115 38.5076 44.1921 40.0086 53.6804C40.5003 56.2279 39.3358 57.6577 36.515 57.9436C33.7201 58.3076 32.0897 57.0598 31.598 54.1743C30.1747 45.2319 29.4501 37.0694 29.4242 29.6867ZM38.8441 9.02039C38.8441 8.11055 38.5335 7.35668 37.9124 6.75879C37.3431 6.18689 36.5926 5.87495 35.7386 5.87495C34.8846 5.87495 34.1341 6.1609 33.5648 6.75879C32.9955 7.33069 32.6849 8.08455 32.6849 9.02039C32.6849 9.95622 32.9696 10.6321 33.5648 11.204C34.1341 11.7759 34.8846 12.0878 35.7386 12.0878C36.5926 12.0878 37.3431 11.8019 37.9124 11.204C38.5335 10.6321 38.8441 9.87823 38.8441 9.02039ZM87.7809 13.1017C86.2799 15.4412 84.8048 17.4949 83.3556 19.3145C81.9323 21.1082 80.1984 23.1879 78.1281 25.5794V53.5764C78.1281 56.8778 76.4977 58.5155 73.2111 58.5155C69.9245 58.5155 68.2941 56.8778 68.2941 53.5764V33.2221C65.0852 35.8216 60.7893 38.4731 55.3806 41.1766C52.8963 42.2944 50.9812 41.7225 49.6355 39.4349C48.6004 35.9776 49.3509 33.638 51.887 32.4162C54.3714 31.4024 57.218 29.9206 60.427 27.971C63.6618 25.9694 67.0261 23.2398 70.5197 19.8345C74.0134 16.3771 76.9377 12.5558 79.3185 8.3705C80.6383 6.29087 82.8122 5.77097 85.8141 6.86277C88.6349 8.60446 89.3077 10.7101 87.8068 13.1277L87.7809 13.1017ZM97.9254 13.4136C97.9254 10.1642 99.5557 8.52647 102.791 8.52647H113.504C116.739 8.52647 118.37 10.1642 118.37 13.4136C118.37 16.663 116.739 18.3007 113.504 18.3007H102.791C99.5557 18.3007 97.9254 16.663 97.9254 13.4136ZM137.623 25.3715C136.511 29.2448 134.311 33.482 131.076 38.0832C127.867 42.6324 124.373 46.3497 120.595 49.2352C116.843 52.0687 111.305 54.3043 103.955 55.942C101.083 56.4879 99.2452 55.1361 98.4688 51.9387C98.0548 48.6373 99.3746 46.7136 102.454 46.1677C107.811 45.2579 112.055 43.5682 115.187 41.0986C118.292 38.6291 121.061 35.7696 123.468 32.5202C125.926 29.2188 127.738 25.7614 128.902 22.122C129.937 19.5745 131.93 18.6647 134.88 19.3665C137.675 20.6663 138.581 22.6679 137.623 25.3715ZM150.097 10.6581C150.097 7.35668 151.727 5.71898 155.014 5.71898C158.301 5.71898 159.931 7.35668 159.931 10.6581V22.616H181.255C184.49 22.616 186.12 24.2537 186.12 27.5031C186.12 30.7525 184.49 32.4422 181.255 32.4422H159.931V53.2385C159.931 56.5399 158.301 58.1776 155.014 58.1776C151.727 58.1776 150.097 56.5399 150.097 53.2385V10.6581ZM205.555 4.88713C206.099 3.66534 206.979 2.75551 208.247 2.13162C208.945 1.79368 209.67 1.63771 210.42 1.63771C210.912 1.63771 211.43 1.71569 211.973 1.89766C213.215 2.31359 214.121 3.11944 214.665 4.28923C214.949 4.91312 215.105 5.53701 215.105 6.1609C215.105 6.7068 214.975 7.2787 214.716 7.85059C213.552 10.5281 212.361 13.0237 211.093 15.3632C210.886 15.7012 210.783 16.0651 210.783 16.4811V56.124C210.783 57.4497 210.317 58.5935 209.411 59.5033C208.505 60.4132 207.367 60.8811 206.047 60.8811C204.727 60.8811 203.666 60.4132 202.734 59.5033C201.829 58.5935 201.363 57.4497 201.363 56.124V30.8305C201.363 30.8305 201.311 30.7005 201.234 30.7005C201.156 30.6485 201.078 30.6485 200.975 30.7005C200.405 31.4024 199.681 31.7663 198.853 31.7663C198.697 31.7663 198.516 31.7663 198.361 31.7143C197.274 31.5584 196.498 30.9865 195.98 30.0246C195.773 29.6607 195.566 29.2708 195.359 28.9068C194.79 27.789 194.479 26.5672 194.479 25.2675V24.4616C194.634 22.8759 195.23 21.4722 196.239 20.2764C199.888 15.8052 202.993 10.6841 205.529 4.93912L205.555 4.88713ZM249.032 13.7775C250.326 13.7775 251.412 14.2455 252.344 15.1553C253.25 16.0651 253.716 17.1829 253.716 18.4827C253.716 19.7825 253.25 20.8743 252.344 21.8101C251.438 22.7199 250.326 23.1879 249.032 23.1879H247.841C247.427 23.1879 247.22 23.3958 247.22 23.8117V50.171C247.22 52.9785 246.858 55.0581 246.159 56.4359C245.486 57.8137 244.296 58.8535 242.536 59.5553C240.285 60.4652 236.687 60.9851 231.745 61.0631H231.615C230.244 61.0631 229.001 60.6211 227.863 59.7373C226.75 58.8535 225.922 57.7097 225.378 56.2799C225.223 55.864 225.12 55.4741 225.12 55.0841C225.12 54.5122 225.275 53.9144 225.611 53.3425C226.207 52.4586 227.035 52.0167 228.096 52.0167H228.147C229.855 52.0687 231.331 52.0687 232.573 52.0687C233.66 52.0687 234.565 52.0687 235.316 52.0167C236.118 52.0167 236.662 51.8607 236.998 51.5748C237.334 51.2888 237.49 50.7689 237.49 50.067V23.7597C237.49 23.3438 237.283 23.1359 236.869 23.1359H218.65C217.356 23.1359 216.243 22.6679 215.286 21.7581C214.38 20.8483 213.914 19.7305 213.914 18.4307C213.914 17.1309 214.38 16.0391 215.286 15.1033C216.243 14.1935 217.356 13.7255 218.65 13.7255H236.869C237.283 13.7255 237.49 13.5176 237.49 13.1017V5.589C237.49 4.26324 237.956 3.11944 238.913 2.2096C239.871 1.24778 241.009 0.77986 242.329 0.77986C243.649 0.77986 244.788 1.24778 245.693 2.2096C246.651 3.11944 247.117 4.26324 247.117 5.589V13.1017C247.117 13.5176 247.324 13.7255 247.738 13.7255H248.928L249.032 13.7775ZM230.451 36.6274C230.865 37.3813 231.072 38.1612 231.072 38.941C231.072 39.4089 230.994 39.8769 230.813 40.3708C230.399 41.6965 229.571 42.6844 228.329 43.3082C227.656 43.6462 226.983 43.8022 226.284 43.8022C225.741 43.8022 225.197 43.6982 224.654 43.4902C223.412 43.0223 222.48 42.1905 221.911 40.9947C221.031 39.279 219.866 37.0954 218.417 34.4178C218.081 33.742 217.925 33.0661 217.925 32.3382C217.925 31.9223 217.977 31.4804 218.106 31.0125C218.521 29.8427 219.271 28.9848 220.358 28.4389C221.057 28.101 221.781 27.945 222.48 27.945C222.972 27.945 223.489 28.023 223.981 28.205C225.223 28.5689 226.181 29.3228 226.854 30.4665C228.51 33.274 229.726 35.3017 230.477 36.6014L230.451 36.6274ZM313.91 36.0815C315.126 36.0815 316.161 36.5235 317.041 37.4073C317.921 38.2911 318.361 39.357 318.361 40.6047C318.361 41.8525 317.921 42.8663 317.041 43.7242C316.161 44.556 315.126 44.9719 313.91 44.9719H306.301C305.887 44.9719 305.654 45.1799 305.629 45.5958C304.671 51.5228 303.403 55.3961 301.824 57.1898C300.789 58.3596 299.702 59.1914 298.59 59.6853C297.503 60.1792 296.105 60.5432 294.423 60.7511C293.181 60.9591 291.369 61.0631 288.989 61.0631H288.859C287.488 61.0631 286.245 60.5952 285.107 59.6333C284.02 58.7235 283.243 57.5277 282.726 56.072C282.596 55.708 282.545 55.3181 282.545 54.9542C282.545 54.3823 282.726 53.7844 283.036 53.2125C283.606 52.3806 284.408 51.9647 285.417 51.9647H285.547C286.97 52.0167 288.652 52.0167 290.593 52.0167C291.913 52.0167 292.974 51.7307 293.724 51.1328C294.552 50.379 295.277 48.5333 295.898 45.6218C295.898 45.4659 295.846 45.3099 295.717 45.1799C295.639 45.0499 295.536 44.9979 295.406 44.9979H264.404C263.187 44.9979 262.152 44.582 261.272 43.7502C260.392 42.8663 259.978 41.8265 259.978 40.6307C259.978 39.4349 260.418 38.3171 261.272 37.4333C262.152 36.5495 263.187 36.1075 264.404 36.1075H296.649C297.063 36.1075 297.296 35.8996 297.321 35.4836C297.451 34.4438 297.58 33.0661 297.684 31.3504C297.684 31.1944 297.632 31.0384 297.503 30.9085C297.373 30.7785 297.244 30.7265 297.063 30.7265H278.223C278.068 30.7265 277.964 30.8045 277.912 30.9865C277.783 31.6103 277.447 32.1043 276.929 32.4942C276.437 32.8581 275.868 33.0401 275.247 32.9881L272.556 32.8061C271.262 32.6762 270.252 32.1043 269.502 31.0644C268.958 30.3106 268.7 29.5047 268.7 28.6209C268.7 28.2829 268.751 27.945 268.829 27.6071C270.408 20.5623 271.805 12.9977 272.995 4.93912C273.202 3.56136 273.849 2.44356 274.936 1.61171C275.842 0.857847 276.903 0.493912 278.068 0.493912C278.223 0.493912 278.404 0.493912 278.559 0.545902C279.879 0.675879 280.94 1.24778 281.742 2.28759C282.415 3.09345 282.752 3.97729 282.752 4.99111C282.752 5.25106 282.752 5.51101 282.7 5.79696C282.648 5.95293 282.596 6.21289 282.519 6.55083C282.467 6.83678 282.467 7.01874 282.467 7.12273C282.415 7.2527 282.467 7.38268 282.596 7.48666C282.726 7.61664 282.855 7.66863 282.985 7.66863H306.741C307.984 7.66863 309.019 8.11055 309.873 8.99439C310.753 9.87823 311.193 10.944 311.193 12.1918C311.193 13.4396 310.753 14.4534 309.873 15.3113C309.045 16.1951 308.009 16.637 306.741 16.637H281.484C281.07 16.637 280.811 16.819 280.733 17.2089C280.552 18.1188 280.293 19.5745 279.931 21.5241C279.931 21.6801 279.983 21.8361 280.06 21.9661C280.19 22.096 280.319 22.148 280.423 22.148H302.445C303.895 22.148 305.137 22.6679 306.198 23.7078C307.104 24.7216 307.57 25.8654 307.57 27.1651C307.57 27.2951 307.57 27.4251 307.518 27.6071C307.311 30.8305 307.104 33.456 306.897 35.5096C306.845 35.6656 306.897 35.8216 307.026 35.9516C307.155 36.0815 307.285 36.1335 307.466 36.1335H314.013L313.91 36.0815ZM357.283 36.4455C357.283 37.5633 356.894 38.5511 356.092 39.383C355.316 40.1888 354.358 40.5787 353.22 40.5787C352.883 40.5787 352.702 40.7347 352.65 41.0207C352.081 43.6462 351.253 46.0638 350.218 48.2214C350.011 48.5853 350.088 48.8972 350.477 49.1052C351.305 49.5991 352.366 50.275 353.66 51.1069C354.022 51.3668 354.41 51.3668 354.772 51.1588C358.421 49.2092 361.527 46.6097 364.063 43.3862C364.322 43.1003 364.348 42.7364 364.192 42.3204C363.028 39.6169 361.993 36.5755 361.061 33.248C361.009 33.1961 360.957 33.1961 360.88 33.1961C360.828 33.1441 360.802 33.1961 360.75 33.248C360.595 33.508 360.414 33.742 360.259 34.0019C359.974 34.4698 359.534 34.7038 358.939 34.7558C358.37 34.8078 357.852 34.5998 357.438 34.1839C357.386 34.1319 357.36 34.1319 357.309 34.1839C357.257 34.1839 357.257 34.1839 357.257 34.2359V36.4195L357.283 36.4455ZM339.97 40.5787C339.556 40.5787 339.245 40.7347 339.038 41.0726L338.365 42.3984C338.21 42.7363 338.313 42.9703 338.676 43.1523C339.659 43.5682 340.72 44.0361 341.859 44.53C342.221 44.686 342.532 44.582 342.739 44.2181C343.205 43.2563 343.593 42.2424 343.929 41.1506C343.981 41.0207 343.929 40.8907 343.877 40.7867C343.8 40.6567 343.67 40.6047 343.515 40.6047H340.022L339.97 40.5787ZM372.059 20.7963C372.111 20.6403 372.059 20.4843 371.93 20.3544C371.852 20.2244 371.723 20.1724 371.542 20.1724H367.557C367.401 20.1724 367.246 20.2244 367.117 20.3544C367.039 20.4843 366.987 20.6143 366.987 20.7963C367.66 24.5656 368.54 28.049 369.601 31.3244C369.601 31.4024 369.653 31.4544 369.73 31.4544C369.86 31.4544 369.937 31.4024 369.989 31.3244C370.869 28.205 371.542 24.6956 372.034 20.7963H372.059ZM346.077 8.83842C345.922 8.76043 345.767 8.76043 345.637 8.83842C345.508 8.9164 345.456 9.04638 345.456 9.20235V9.69626C345.456 10.1122 345.663 10.3202 346.077 10.3202H348.872C348.872 10.3202 349.001 10.3202 349.001 10.2682C349.001 10.1902 349.001 10.1122 348.95 10.0862L346.077 8.83842ZM385.102 17.027C385.102 17.9108 384.792 18.6647 384.171 19.2885C383.576 19.8604 382.877 20.1724 382.049 20.1724C381.79 20.1724 381.661 20.3024 381.609 20.5363C380.392 29.4787 378.4 36.8354 375.553 42.6584C375.398 43.0223 375.398 43.3862 375.605 43.7242C377.39 46.1417 379.383 48.2214 381.583 49.9891C382.618 50.7949 383.213 51.8347 383.394 53.1085C383.446 53.3165 383.446 53.5504 383.446 53.8104C383.446 54.8242 383.11 55.76 382.437 56.6179C381.531 57.7357 380.392 58.4635 379.021 58.7495C378.684 58.8275 378.374 58.8795 378.089 58.8795C377.08 58.8795 376.148 58.5415 375.294 57.8656C373.302 56.2279 371.516 54.3823 369.937 52.3026C369.679 51.9647 369.42 51.9387 369.135 52.2506C366.858 54.7202 364.192 56.9038 361.164 58.8275C360.414 59.2954 359.638 59.5293 358.861 59.5293C358.395 59.5293 357.93 59.4514 357.438 59.2694C356.144 58.9055 355.135 58.0736 354.384 56.8258H354.332C354.177 56.4879 353.97 56.4619 353.711 56.7738C352.806 57.6837 351.667 58.1776 350.347 58.2036C350.27 58.2556 350.166 58.2556 350.037 58.2556C348.82 58.2556 347.759 57.8916 346.802 57.1378C346.181 56.6699 345.482 56.2279 344.757 55.76C344.421 55.5001 344.084 55.5001 343.748 55.76C340.953 57.6057 337.278 59.0874 332.646 60.2052C332.31 60.3352 331.973 60.3872 331.585 60.3872C330.835 60.3872 330.11 60.1792 329.411 59.7633C328.402 59.1394 327.651 58.2556 327.108 57.1378C326.849 56.6699 326.746 56.2279 326.746 55.76C326.746 55.3441 326.849 54.9022 327.056 54.4343C327.47 53.5504 328.169 53.0305 329.101 52.8745C331.714 52.4066 333.914 51.8087 335.7 51.0549C335.829 50.9769 335.881 50.8729 335.881 50.7429C335.881 50.6129 335.829 50.535 335.7 50.483C335.57 50.431 335.441 50.379 335.26 50.301C335.079 50.223 334.923 50.145 334.768 50.041C334.613 49.9631 334.458 49.8851 334.328 49.8591C334.251 49.8071 334.173 49.8591 334.147 49.9111C333.862 50.405 333.422 50.5869 332.827 50.405L329.644 49.4691C328.609 49.1832 327.91 48.5333 327.522 47.5195C327.367 47.1556 327.263 46.7396 327.263 46.3237C327.263 45.7518 327.419 45.2059 327.755 44.686C328.454 43.4382 329.127 42.2164 329.748 41.0467C329.825 40.9167 329.825 40.8127 329.748 40.7347C329.696 40.6047 329.592 40.5527 329.437 40.5527H328.195C327.16 40.5527 326.28 40.1888 325.581 39.4869C324.882 38.7331 324.52 37.8492 324.52 36.8614C324.52 35.8736 324.882 34.9377 325.581 34.2359C326.28 33.482 327.16 33.1181 328.195 33.1181H333.422C333.707 33.1181 333.914 32.9621 334.044 32.6762C334.509 31.7923 334.923 30.9345 335.286 30.1026C335.622 29.4007 336.14 29.1148 336.838 29.2968C336.916 29.2968 336.968 29.2448 336.968 29.1668V25.3975C336.968 25.3975 336.916 25.1895 336.787 25.1375C336.709 25.0855 336.631 25.0855 336.528 25.1375C335.079 26.4633 333.5 27.737 331.844 28.9068C331.223 29.3228 330.55 29.5307 329.851 29.5307C329.515 29.5307 329.178 29.4787 328.842 29.4007C327.807 29.1408 326.953 28.5429 326.28 27.5811C325.866 26.9572 325.659 26.3073 325.659 25.6314C325.659 25.3715 325.711 25.1115 325.788 24.8256C325.995 23.8117 326.539 23.0839 327.419 22.564C329.696 21.2642 331.818 19.7565 333.785 17.9888C333.862 17.9108 333.888 17.8328 333.836 17.7288C333.785 17.5989 333.707 17.5469 333.578 17.5469H329.023C328.04 17.5469 327.186 17.1829 326.461 16.4811C325.762 15.7792 325.4 14.9213 325.4 13.9075C325.4 12.8937 325.762 12.0618 326.461 11.334C327.16 10.6321 328.014 10.2682 329.023 10.2682C329.101 10.2682 329.178 10.2162 329.204 10.1382C329.282 10.0602 329.308 9.98221 329.256 9.87823C328.971 8.9164 328.583 7.87659 328.066 6.75879C327.858 6.26488 327.755 5.77097 327.755 5.32905C327.755 4.91312 327.807 4.4972 327.936 4.08127C328.273 3.19743 328.868 2.57354 329.748 2.2096C330.291 1.94965 330.835 1.84567 331.378 1.84567C331.792 1.84567 332.232 1.92366 332.698 2.10562C333.681 2.39157 334.432 3.01546 334.872 3.9253C335.079 4.34122 335.286 4.73115 335.493 5.12108C335.7 5.615 335.803 6.1349 335.803 6.62881C335.803 7.09673 335.7 7.56465 335.493 8.05856C335.027 9.02039 334.302 9.72226 333.319 10.1902C333.267 10.1902 333.267 10.1902 333.267 10.2422C333.319 10.2942 333.345 10.2942 333.397 10.2942H336.321C336.735 10.2942 336.942 10.0862 336.942 9.67027V4.31523C336.942 3.09345 337.356 2.07963 338.184 1.24778C339.012 0.415926 340.021 0 341.186 0C342.351 0 343.386 0.415926 344.188 1.24778C345.016 2.07963 345.43 3.09345 345.43 4.31523V7.8246C345.43 7.8246 345.482 7.98057 345.56 8.00657C345.689 8.00657 345.767 7.95458 345.818 7.87659C346.414 6.83678 347.009 5.69298 347.63 4.41921C348.122 3.3794 348.924 2.62553 350.011 2.15761C350.554 1.89766 351.123 1.79368 351.693 1.79368C352.185 1.79368 352.702 1.89766 353.194 2.10562C354.203 2.46956 354.824 3.17143 355.057 4.18525C355.186 4.4712 355.238 4.75715 355.238 5.06909C355.238 5.74497 355.005 6.36886 354.565 6.94076C353.53 8.31851 352.754 9.33233 352.262 9.95622C352.21 10.0342 352.21 10.1122 352.262 10.2162C352.314 10.2942 352.366 10.3461 352.443 10.3461H353.504C354.488 10.3461 355.342 10.7101 356.066 11.412C356.765 12.1138 357.127 12.9717 357.127 13.9855C357.127 14.9993 356.765 15.8312 356.066 16.559C355.368 17.2609 354.514 17.6248 353.504 17.6248H349.079C349.079 17.6248 348.924 17.6768 348.898 17.7548C348.898 17.8328 348.898 17.9108 348.95 17.9368C350.166 18.5607 351.279 19.1846 352.314 19.8085C353.271 20.3544 353.841 21.1342 353.996 22.2C354.048 22.46 354.048 22.6679 354.048 22.9019C354.048 23.7078 353.789 24.4096 353.297 25.0335C352.676 25.9174 351.822 26.3853 350.735 26.4633H350.425C349.519 26.4633 348.691 26.1513 347.992 25.5274C347.371 24.9815 346.672 24.4096 345.948 23.7857C345.87 23.7078 345.767 23.6818 345.637 23.7338C345.508 23.7857 345.456 23.8637 345.456 23.9937V25.5014C345.456 26.8012 344.99 27.893 344.084 28.8288C343.205 29.7127 342.144 30.1546 340.901 30.1546H340.772C340.772 30.1546 340.72 30.2066 340.772 30.2066L342.144 30.5185C342.687 30.5965 343.075 30.9085 343.334 31.4544C343.593 31.9483 343.593 32.4682 343.334 32.9621C343.282 33.1181 343.334 33.2221 343.515 33.2221H355.73C355.73 33.2221 355.885 33.1701 355.911 33.0921C355.963 32.9621 355.911 32.8581 355.833 32.7801C354.747 31.7403 354.1 30.4665 353.893 28.9588C353.841 28.6209 353.815 28.3089 353.815 28.023C353.815 26.8532 354.1 25.7354 354.695 24.6956C357.438 19.6525 359.456 13.0237 360.75 4.83513C360.957 3.53537 361.579 2.49555 362.614 1.71569C363.442 1.03981 364.348 0.701874 365.357 0.701874C365.616 0.701874 365.849 0.701874 366.107 0.753865C367.401 0.961828 368.436 1.58572 369.213 2.62553C369.782 3.43139 370.093 4.28923 370.093 5.25106C370.093 5.53701 370.093 5.82296 370.041 6.1349C369.756 7.87659 369.446 9.5143 369.109 11.022C369.058 11.178 369.109 11.334 369.161 11.4639C369.239 11.5939 369.368 11.6459 369.549 11.6459H380.832C381.997 11.6459 383.006 12.0618 383.834 12.8937C384.662 13.7255 385.077 14.7394 385.077 15.9092V17.1049L385.102 17.027Z" fill="var(--fill-0, white)"/>
</svg>
